<svg width="50" height="18" viewBox="0 0 50 18" fill="none" xmlns="http://www.w3.org/2000/svg">
<path d="M33.9016 3.93063L34.9298 3.0025L33.7202 3.68313C33.7202 3.68313 34.0083 2.64441 34.5064 2.25999C35.1332 1.77631 36.5022 2.01249 36.5022 2.01249C36.5022 2.01249 36.0421 3.08849 35.4741 3.4975C34.9487 3.8758 34.5064 3.93063 33.9016 3.93063Z" fill="#5C5C5C"/>
<path d="M6.86608 9.31338L7.16847 9.49901C6.38225 11.5409 5.68577 12.469 4.24191 12.469C3.24795 12.469 2.41616 12.1104 1.74654 11.3932C1.08739 10.6653 0.757812 9.72867 0.757812 8.58328C0.757812 7.37366 1.08216 6.38883 1.73085 5.62881C2.37954 4.86878 3.20087 4.48877 4.19483 4.48877C5.19925 4.48877 5.968 4.75033 6.59602 5.58064C7.06905 6.20602 7.16847 6.71459 7.16847 7.51898H2.02785C2.02785 7.93646 1.9906 8.66086 2.08833 9.004C2.29004 9.71224 2.36846 9.96748 2.87454 10.4271C3.40587 10.9097 3.66812 11.1078 4.56792 11.1078C5.59327 11.1078 6.24877 10.5016 6.86608 9.31338ZM2.02785 7.02397H3.60027C3.99786 7.02397 5.41461 7.02397 5.41461 7.02397C5.41461 7.02397 5.43072 6.01769 5.11222 5.58064C4.80228 5.15533 4.48166 4.98207 3.96314 4.98207C3.35836 4.98207 2.98276 5.14816 2.57215 5.58064C2.1607 6.014 2.02785 6.46709 2.02785 7.02397Z" fill="#5C5C5C"/>
<path d="M10.486 9.28978H11.0039C11.16 10.4896 11.3567 10.8979 11.7648 11.294C12.1728 11.6794 12.4654 11.7678 12.8534 11.9128C13.2993 12.0794 13.7491 12.0352 14.0629 11.789C14.3873 11.5321 14.5349 11.2383 14.5495 10.8095C14.5713 10.1679 13.5791 9.49901 13.5791 9.49901L12.3091 8.75709C12.3091 8.75709 11.4029 8.31666 11.0995 7.9527C10.8066 7.58875 10.6115 7.28802 10.6115 6.81702C10.6115 6.17474 10.8365 5.62345 11.2864 5.16316C11.7467 4.69215 12.3536 4.45665 13.1069 4.45665C13.7556 4.45665 14.2444 4.61141 14.6135 4.79703L14.8803 4.45665H15.1515L15.2099 7.02456H14.9096C14.6899 6.29665 14.794 6.16739 14.4258 5.72517C14.0328 5.25318 13.6352 5.0347 13.0284 5.0347C12.5262 5.0347 12.1286 5.16316 11.8356 5.42007C11.5532 5.66627 11.6093 6.09643 11.6438 6.34393C11.7043 6.77706 14.0629 8.01458 14.0629 8.01458C14.0629 8.01458 14.9169 8.44446 15.2413 8.82983C15.5656 9.2152 15.7278 9.67014 15.7278 10.1947C15.7278 10.8905 15.4715 11.4632 14.9588 11.9128C14.4461 12.3623 14.1916 12.3915 13.6396 12.4696C13.2178 12.5294 12.9888 12.4324 12.551 12.4078C12.0471 12.3794 11.281 12.164 11.281 12.164L11.0039 12.4078L10.6762 12.3406L10.486 9.28978Z" fill="#5C5C5C"/>
<path d="M25.0699 5.61098V5.04898C26.4609 4.48766 26.8747 4.05452 27.3681 2.26013H27.6594V4.87236H29.4243V5.61098H27.6594V10.4441C27.6594 10.8509 27.7536 11.172 27.9419 11.4075C28.1303 11.643 28.4567 11.6034 28.4567 11.6034C28.4567 11.6034 28.8182 11.6007 29.001 11.4796C29.2322 11.3265 29.3638 10.8609 29.3638 10.8609H29.8974C29.8974 10.8609 29.7609 11.5119 29.5167 11.8381C29.0846 12.4154 28.6605 12.4891 28.0333 12.4696C27.5515 12.4547 27.22 12.3656 26.8747 12.0337C26.5295 11.7019 26.3568 11.2416 26.3568 10.6528V5.61098H25.0699Z" fill="#5C5C5C"/>
<path d="M40.7942 1.70324L40.6127 1.33199L42.9224 0.504883V6.31748C43.6967 5.30054 44.586 4.79208 45.5905 4.79208C46.3228 4.79208 46.8931 5.04363 47.3011 5.54675C47.7092 6.04987 47.9132 6.76707 47.9132 7.69837V11.263C47.9132 11.7019 48.1486 11.9213 48.6194 11.9213H49.2472V12.5315H45.2766V11.9213H45.7317C46.3176 11.9213 46.6106 11.7019 46.6106 11.263V7.69837C46.6106 7.08821 46.4641 6.60651 46.1711 6.25325C45.8886 5.8893 45.4963 5.70732 44.9941 5.70732C44.45 5.70732 43.9687 5.94282 43.5502 6.41382C43.1317 6.88482 42.9224 7.47893 42.9224 8.19614V11.1827C42.9224 11.461 42.9748 11.6537 43.0794 11.7608C43.184 11.8678 43.3619 11.9213 43.613 11.9213H44.2408V12.5315H40.38V11.9213H40.8037C41.3583 11.9213 41.6355 11.6751 41.6355 11.1827L41.7013 2.26013C41.7013 2.26013 41.714 1.74028 41.5199 1.57949C41.2966 1.3945 40.7942 1.70324 40.7942 1.70324Z" fill="#5C5C5C"/>
<path d="M38.0122 9.31338L38.3146 9.49901C37.5284 11.5409 36.8319 12.469 35.388 12.469C34.394 12.469 33.5623 12.1104 32.8926 11.3932C32.2335 10.6653 31.9039 9.72867 31.9039 8.58328C31.9039 7.37366 32.2283 6.38883 32.8769 5.62881C33.5256 4.86878 34.347 4.48877 35.3409 4.48877C36.3453 4.48877 37.1141 4.75033 37.7421 5.58064C38.2151 6.20602 38.3146 6.71459 38.3146 7.51898H33.1739C33.1739 7.93646 33.1367 8.66086 33.2344 9.004C33.4361 9.71224 33.5146 9.96748 34.0206 10.4271C34.552 10.9097 34.8142 11.1078 35.714 11.1078C36.7394 11.1078 37.3949 10.5016 38.0122 9.31338ZM33.1739 7.02397H34.7464C35.144 7.02397 36.5607 7.02397 36.5607 7.02397C36.5607 7.02397 36.5768 6.01769 36.2583 5.58064C35.9484 5.15533 35.6278 4.98207 35.1092 4.98207C34.5045 4.98207 34.1289 5.14816 33.7182 5.58064C33.3068 6.014 33.1739 6.46709 33.1739 7.02397Z" fill="#5C5C5C"/>
<ellipse cx="20.4742" cy="8.50949" rx="1.20956" ry="1.23752" fill="#5C5C5C"/>
<path d="M11.6431 14.8887H11.9296V17.3444H11.6431V14.8887Z" fill="#5C5C5C"/>
<path d="M13.622 14.853H13.7443L15.2431 16.7689L15.292 16.8583L15.2885 16.7582L15.285 14.8851H15.568V17.3444H15.4213L15.2186 17.1407L14.0273 15.6751L13.891 15.4892L13.9085 15.7252V17.3444H13.622V14.853Z" fill="#5C5C5C"/>
<path d="M18.1919 14.8708C18.4085 14.8851 18.6007 14.9471 18.7684 15.0567C18.9384 15.1663 19.07 15.3141 19.1632 15.5C19.2564 15.6835 19.303 15.8896 19.303 16.1184C19.303 16.3614 19.2505 16.5783 19.1457 16.7689C19.0432 16.9596 18.9 17.1085 18.716 17.2158C18.532 17.323 18.3224 17.3766 18.0871 17.3766H17.9124C17.8938 17.3766 17.853 17.3766 17.7901 17.3766C17.7272 17.3766 17.6154 17.3695 17.4547 17.3552L17.2591 17.3373V14.8673L18.1919 14.8708ZM17.9753 17.1085C18.3107 17.1085 18.5681 17.0239 18.7474 16.8547C18.9268 16.6855 19.0165 16.4437 19.0165 16.1291C19.0165 15.8336 18.9396 15.5989 18.7859 15.4249C18.6345 15.2509 18.4237 15.1568 18.1535 15.1425H17.5456V17.0906C17.704 17.1026 17.8472 17.1085 17.9753 17.1085Z" fill="#5C5C5C"/>
<path d="M22.1902 17.4195C21.9596 17.4171 21.7523 17.3623 21.5683 17.2551C21.3866 17.1455 21.2434 16.9977 21.1386 16.8118C21.0361 16.6236 20.9848 16.4115 20.9848 16.1756V16.0719C20.9848 15.8455 21.0372 15.6382 21.1421 15.4499C21.2492 15.2593 21.3936 15.1091 21.5753 14.9995C21.7593 14.8875 21.9596 14.8315 22.1762 14.8315C22.3952 14.8315 22.5955 14.8875 22.7772 14.9995C22.9588 15.1091 23.1032 15.2593 23.2104 15.4499C23.3175 15.6382 23.3711 15.8455 23.3711 16.0719V16.1756C23.3711 16.4115 23.3187 16.6248 23.2139 16.8154C23.1114 17.006 22.9705 17.155 22.7911 17.2622C22.6118 17.3695 22.4115 17.4219 22.1902 17.4195ZM22.1797 17.1478C22.3497 17.1478 22.5035 17.1061 22.6409 17.0227C22.7783 16.9369 22.8866 16.8202 22.9658 16.6724C23.045 16.5247 23.0846 16.3591 23.0846 16.1756V16.0719C23.0846 15.8979 23.0439 15.7371 22.9623 15.5893C22.8808 15.4392 22.7702 15.3212 22.6304 15.2355C22.493 15.1473 22.3404 15.1032 22.1727 15.1032C22.0074 15.1032 21.856 15.1473 21.7185 15.2355C21.5811 15.3212 21.4716 15.4392 21.3901 15.5893C21.3109 15.7371 21.2713 15.8979 21.2713 16.0719V16.1756C21.2713 16.3591 21.3109 16.5247 21.3901 16.6724C21.4693 16.8202 21.5776 16.9369 21.715 17.0227C21.8548 17.1061 22.0097 17.1478 22.1797 17.1478Z" fill="#5C5C5C"/>
<path d="M25.1189 14.8422H25.2412L26.74 16.7582L26.7889 16.8476L26.7854 16.7475L26.7819 14.8744H27.0649V17.3337H26.9182L26.7155 17.13L25.5242 15.6644L25.3879 15.4785L25.4054 15.7144V17.3337H25.1189V14.8422Z" fill="#5C5C5C"/>
<path d="M28.7583 14.8887H30.0283V15.1604H29.0378V15.9075H29.9846V16.1791H29.0378V17.0728H30.0283V17.3444H28.7583V14.8887Z" fill="#5C5C5C"/>
<path d="M32.5753 17.4159C32.4356 17.4159 32.304 17.3885 32.1805 17.3337C32.0571 17.2788 32.0221 17.2419 31.9359 17.1442C31.8521 17.0465 31.7974 16.9357 31.7717 16.8118L32.0303 16.701C32.0675 16.8511 32.1456 16.9691 32.2644 17.0548C32.3832 17.1406 32.4402 17.1442 32.5753 17.1442C32.7197 17.1442 32.842 17.0989 32.9422 17.0084C33.0423 16.9154 33.0774 16.8133 33.0681 16.6735C33.0626 16.5898 33.0598 16.5366 33.0016 16.4699C32.9433 16.4032 32.8408 16.3341 32.6941 16.2626C32.5078 16.1696 32.3657 16.0946 32.2679 16.0374C32.1724 15.9778 32.092 15.9051 32.0268 15.8193C31.9639 15.7311 31.9359 15.55 31.9359 15.4284C31.9359 15.3116 31.9662 15.208 32.0268 15.1174C32.0897 15.0245 32.1724 14.953 32.2748 14.903C32.3797 14.8505 32.4915 14.8243 32.6102 14.8243C32.7104 14.8243 32.8036 14.8458 32.8898 14.8887C32.9783 14.9292 33.0481 14.984 33.0994 15.0531C33.153 15.1222 33.1797 15.1961 33.1797 15.2747C33.1797 15.2866 33.1774 15.3069 33.1727 15.3355L32.9002 15.3176C32.9095 15.2795 32.8991 15.2437 32.8688 15.2104C32.8408 15.1746 32.8012 15.1472 32.75 15.1282C32.6988 15.1067 32.6498 15.096 32.6033 15.096C32.5008 15.096 32.4111 15.1282 32.3342 15.1925C32.2597 15.2545 32.2224 15.3295 32.2224 15.4177C32.2224 15.4892 32.2434 15.6299 32.2923 15.6871C32.3436 15.7443 32.4029 15.7943 32.4705 15.8372C32.538 15.8777 32.6254 15.9254 32.7325 15.9802L32.8583 16.0445C33.0423 16.147 33.1739 16.2495 33.2531 16.3519C33.3346 16.4544 33.3479 16.544 33.3546 16.6771C33.3621 16.8258 33.3416 16.9309 33.2671 17.0477C33.1949 17.1645 33.097 17.255 32.9736 17.3194C32.8502 17.3837 32.7174 17.4159 32.5753 17.4159Z" fill="#5C5C5C"/>
<path d="M35.0639 14.8887H35.3504V17.3444H35.0639V14.8887Z" fill="#5C5C5C"/>
<path d="M38.1324 14.8208L39.221 17.3444H38.917L38.5886 16.5545H37.6767L37.3553 17.3444H37.0513L38.1324 14.8208ZM38.1798 15.525L38.1519 15.4321L38.1309 15.3498L38.1064 15.4285L38.0785 15.525L37.785 16.2899H38.4768L38.1798 15.525Z" fill="#5C5C5C"/>
</svg>
