<svg width="32" height="38" viewBox="0 0 32 38" fill="none" xmlns="http://www.w3.org/2000/svg">
<path d="M21.2682 32.292V37.0054H24.6856V37.6067H20.3872V32.292H21.2682Z" fill="#5C5C5C"/>
<path d="M17.3263 35.5209V37.6067H16.4422V35.5209L13.7607 32.292H14.8489L16.8988 34.8825L18.8807 32.292H19.9397L17.3263 35.5209Z" fill="black"/>
<path d="M11.9524 36.0108H9.10054L8.31526 37.6067H7.31299L9.94782 32.292H11.1671L13.7606 37.6067H12.717L11.9524 36.0108ZM11.6837 35.4392L10.5471 33.0268L9.33819 35.4392H11.6837Z" fill="black"/>
<path d="M29.4143 36.0108H26.5625L25.7772 37.6067H24.7749L27.4097 32.292H28.629L31.2225 37.6067H30.1789L29.4143 36.0108ZM29.1456 35.4392L28.009 33.0268L26.8001 35.4392H29.1456Z" fill="#5C5C5C"/>
<path d="M6.86527 32.292V37.6067H5.75415L1.71271 33.2941V37.6067H0.775879V32.292H1.85432L5.92844 36.6343V32.292H6.86527Z" fill="black"/>
<path d="M27.9991 16.4709C27.9991 23.2953 22.4061 28.8275 15.5069 28.8275C8.6076 28.8275 3.01465 23.2953 3.01465 16.4709C3.01465 13.4743 3.01473 0.394043 3.01473 0.394043L9.28314 5.75462C11.1155 4.71116 13.2407 4.11431 15.5069 4.11431C22.4061 4.11431 27.9991 9.64655 27.9991 16.4709Z" fill="#5C5C5C"/>
<path d="M11.9928 19.337L9.58492 17.7797C9.58492 17.7797 8.45363 19.7271 8.51989 21.0775C8.58012 22.3051 10.0914 24.1876 10.1841 23.9883C10.4184 23.4845 11.4834 23.0928 11.4834 23.0928C11.4834 23.0928 10.4839 23.6337 10.4184 24.2379C10.2795 25.5204 10.4125 27.8095 10.4125 27.8095C10.4125 27.8095 10.8448 28.0012 11.1565 28.1106C11.4623 28.2178 11.9928 28.3646 11.9928 28.3646V25.5204C11.9928 25.5204 15.8825 26.299 17.3642 24.2379C18.846 22.1768 20.7445 19.337 21.578 17.7797C22.4115 16.2224 23.4766 12.146 19.4017 10.1306C15.3268 8.11531 12.5485 12.5582 12.5485 12.5582L15.3268 14.1613C15.3268 14.1613 15.6046 14.3903 15.3731 14.8942C15.1416 15.398 14.5859 15.2148 14.5859 15.2148L11.8974 13.7743L11.4371 14.5736L14.2656 16.1308C14.2656 16.1308 14.6322 16.4056 14.3544 17.0469C14.0766 17.6882 13.382 17.3217 13.382 17.3217L10.6963 15.856L10.2332 16.6347L12.8263 18.1462C12.8263 18.1462 13.382 18.4667 13.0578 19.0622C12.7337 19.6577 11.9928 19.337 11.9928 19.337Z" fill="white"/>
</svg>
