<svg width="42" height="26" viewBox="0 0 42 26" fill="none" xmlns="http://www.w3.org/2000/svg">
<path d="M11.885 14.0387V10.7583L8.07328 14.8076C8.07328 14.8076 8.02246 14.8764 8.02246 14.9614C8.02246 15.0463 8.07328 15.1151 8.07328 15.1151L9.29302 16.3453C9.29302 16.3453 9.36213 16.4358 9.44549 16.4478C9.54373 16.462 9.64878 16.3453 9.64878 16.3453L11.885 14.0387Z" fill="#868686"/>
<path d="M9.44554 9.57923C9.3344 9.59524 9.24225 9.47672 9.24225 9.47672C9.24225 9.47672 7.56861 7.55724 6.44701 6.70885C6.24372 6.55508 5.2781 6.00989 4.51576 6.70885C4.0072 7.17512 4.21082 8.06482 4.51576 8.40032C5.63385 9.63049 8.63238 12.6546 8.63238 12.6546C8.63238 12.6546 8.79341 12.76 8.78485 12.8597C8.77868 12.9316 8.68321 13.0134 8.68321 13.0134L7.51429 14.1923C7.51429 14.1923 7.41785 14.2922 7.311 14.2949C7.22919 14.2969 7.10771 14.1923 7.10771 14.1923L0.805382 7.88775C0.805382 7.88775 0.687217 7.766 0.703731 7.68273C0.714741 7.62721 0.754559 7.58021 0.754559 7.58021C0.754559 7.58021 1.61854 6.81136 2.02545 6.4013C2.03683 6.38984 2.13017 6.33589 2.22841 6.35005C2.31177 6.36206 2.38121 6.4013 2.38121 6.4013L2.73697 6.70885C2.73697 6.70885 3.11046 5.04016 3.90589 4.45354C4.86929 3.74305 6.17591 3.73594 6.95524 4.24852C8.12417 5.01733 10.8686 7.93901 10.8686 7.93901C10.8686 7.93901 10.9194 8.00786 10.9194 8.09278C10.9194 8.17771 10.8686 8.24655 10.8686 8.24655C10.8686 8.24655 9.90295 9.27169 9.59801 9.52797C9.5498 9.5685 9.5289 9.56722 9.44554 9.57923Z" fill="#5C5C5C"/>
<path d="M14.4764 1.37822L9.90234 6.0426L11.4778 7.63156C11.4778 7.63156 12.3418 6.81148 12.9517 6.29888C13.2136 6.07876 13.8912 6.1118 14.2731 6.50394C14.6413 6.88205 14.7455 7.5803 14.4764 7.88788C13.714 8.75924 12.7484 9.88686 12.7484 9.88686H15.8486C16.2654 9.26633 16.6077 8.6567 16.8142 8.34919C17.0208 8.04168 17.2462 7.06777 16.6109 6.0426C15.9756 5.01743 14.1714 4.91494 14.1714 4.91494L16.1812 2.83975C16.1812 2.83975 16.2498 2.77282 16.2552 2.71092C16.2596 2.65966 16.1535 2.55713 16.1535 2.55713L14.9338 1.37822C14.9338 1.37822 14.8421 1.28823 14.7305 1.27573C14.6042 1.26157 14.4764 1.37822 14.4764 1.37822Z" fill="#868686"/>
<ellipse cx="9.39472" cy="2.60838" rx="2.0329" ry="2.05028" fill="#5C5C5C"/>
<path d="M21.9643 10.8096V21.9836H19.6327L15.1209 14.9507H15.0397V21.9836H12.6973V10.8096H15.2384L19.5353 17.837H19.6327V10.8096H21.9643Z" fill="#5C5C5C"/>
<path d="M22.6714 21.9836V10.8096L30.8917 10.8096V12.7574L25.0138 12.7574V15.4199H30.4851V17.3677H25.0138V20.0358L31.1967 20.0358V21.9836L22.6714 21.9836Z" fill="#5C5C5C"/>
<path d="M34.2266 10.8096L36.4609 14.6179H36.1684L38.4135 10.8096H41.2595L37.6243 16.3966L41.2595 21.9836H38.6167L36.3446 18.1698H36.4609L34.1887 21.9836H31.5055L34.9732 16.3966L31.5704 10.8096H34.2266Z" fill="#5C5C5C"/>
<path d="M14.2922 24.0608H13.1161V23.2505C13.1161 23.1726 13.0581 23.1364 12.9836 23.1364C12.9063 23.1364 12.8511 23.1726 12.8511 23.2505V25.2246C12.8511 25.2998 12.9063 25.3388 12.9836 25.3388C13.0581 25.3388 13.1161 25.2998 13.1161 25.2246V24.303H14.2922V25.2246C14.2922 25.2998 14.3502 25.3388 14.4302 25.3388C14.502 25.3388 14.5572 25.2998 14.5572 25.2246V23.2505C14.5572 23.1726 14.502 23.1364 14.4302 23.1364C14.3502 23.1364 14.2922 23.1726 14.2922 23.2505V24.0608Z" fill="#5C5C5C"/>
<path d="M16.2616 24.3253H17.203C17.2692 24.3253 17.3107 24.2724 17.3107 24.2084C17.3107 24.1387 17.272 24.0886 17.203 24.0886H16.2616V23.5123C16.2616 23.4454 16.2892 23.4148 16.3554 23.4148H17.3272C17.399 23.4148 17.4376 23.3619 17.4376 23.2923C17.4376 23.2227 17.399 23.1726 17.3272 23.1726H16.2837C16.0877 23.1726 16.0021 23.2589 16.0021 23.4733V25.0436C16.0021 25.2553 16.0877 25.3416 16.2837 25.3416H17.3521C17.4238 25.3416 17.4625 25.2859 17.4625 25.2191C17.4625 25.1495 17.4238 25.0993 17.3521 25.0993H16.3637C16.303 25.0993 16.2616 25.0743 16.2616 25.0102V24.3253Z" fill="#5C5C5C"/>
<path d="M19.1898 24.6761H20.145L20.3631 25.2525C20.3824 25.3054 20.4266 25.3304 20.4763 25.3304C20.4928 25.3304 20.5094 25.3276 20.526 25.3221C20.5812 25.3082 20.6254 25.2664 20.6254 25.2107C20.6254 25.194 20.6226 25.1801 20.6143 25.1634L19.8634 23.2561C19.8275 23.1614 19.7557 23.1252 19.6674 23.1252C19.5818 23.1252 19.5128 23.1614 19.4769 23.2561L18.726 25.1578C18.7205 25.1745 18.7177 25.1884 18.7177 25.2051C18.7177 25.258 18.7591 25.3054 18.8143 25.3193C18.8337 25.3249 18.8502 25.3276 18.8695 25.3276C18.9165 25.3276 18.9579 25.3054 18.9772 25.2497L19.1898 24.6761ZM19.2726 24.4422L19.5846 23.6348C19.6177 23.5513 19.6453 23.4622 19.6702 23.3675C19.695 23.4622 19.7254 23.5513 19.7557 23.632L20.0622 24.4422H19.2726Z" fill="#5C5C5C"/>
<path d="M21.8656 25.0242C21.8656 25.3221 21.8656 25.3221 22.1472 25.3221H23.2073C23.2791 25.3221 23.3205 25.2608 23.3205 25.194C23.3205 25.1244 23.2791 25.0715 23.2073 25.0715H22.23C22.1306 25.0715 22.1306 25.0715 22.1306 24.974V23.2533C22.1306 23.1726 22.0754 23.1364 21.9981 23.1364C21.9236 23.1364 21.8656 23.1726 21.8656 23.2561V25.0242Z" fill="#5C5C5C"/>
<path d="M24.9047 23.3898V25.2163C24.9047 25.2915 24.9627 25.3304 25.0372 25.3304C25.1118 25.3304 25.1697 25.2915 25.1697 25.2163V23.3898H25.7964C25.8599 23.3898 25.9013 23.3341 25.9013 23.27C25.9013 23.2032 25.8627 23.1447 25.7964 23.1447H24.2753C24.209 23.1447 24.1704 23.2032 24.1704 23.27C24.1704 23.3341 24.209 23.3898 24.278 23.3898H24.9047Z" fill="#5C5C5C"/>
<path d="M28.7001 24.0608H27.5241V23.2505C27.5241 23.1726 27.4661 23.1364 27.3916 23.1364C27.3143 23.1364 27.259 23.1726 27.259 23.2505V25.2246C27.259 25.2998 27.3143 25.3388 27.3916 25.3388C27.4661 25.3388 27.5241 25.2998 27.5241 25.2246V24.303H28.7001V25.2246C28.7001 25.2998 28.7581 25.3388 28.8382 25.3388C28.91 25.3388 28.9652 25.2998 28.9652 25.2246V23.2505C28.9652 23.1726 28.91 23.1364 28.8382 23.1364C28.7581 23.1364 28.7001 23.1726 28.7001 23.2505V24.0608Z" fill="#5C5C5C"/>
<path d="M31.4177 23.1113C30.8435 23.1113 30.4653 23.5596 30.4653 24.2362C30.4653 24.9295 30.8435 25.3666 31.4371 25.3666C31.9285 25.3666 32.3088 25.0662 32.4054 24.7905C32.411 24.7738 32.4137 24.7599 32.4137 24.7432C32.4137 24.6847 32.364 24.643 32.3171 24.6318C32.2978 24.6263 32.2785 24.6235 32.2619 24.6235C32.2094 24.6235 32.1597 24.6485 32.1377 24.7098C32.0659 24.9325 31.7601 25.1216 31.4288 25.1216C31.0147 25.1216 30.7414 24.7764 30.7414 24.239C30.7414 23.6905 31.0147 23.3536 31.4288 23.3536C31.7435 23.3536 32.03 23.5292 32.1128 23.7297C32.1377 23.7826 32.1818 23.8021 32.2288 23.8021C32.2508 23.8021 32.2729 23.7993 32.295 23.791C32.3364 23.777 32.3806 23.7381 32.3806 23.6796C32.3806 23.6629 32.3778 23.6434 32.3696 23.6239C32.2702 23.3789 31.9036 23.1113 31.4177 23.1113Z" fill="#5C5C5C"/>
<path d="M34.084 24.704H35.0392L35.2573 25.2803C35.2767 25.3332 35.3208 25.3583 35.3705 25.3583C35.3871 25.3583 35.4037 25.3555 35.4202 25.3499C35.4754 25.336 35.5196 25.2942 35.5196 25.2385C35.5196 25.2218 35.5169 25.2079 35.5086 25.1912L34.7577 23.284C34.7218 23.1893 34.65 23.1531 34.5616 23.1531C34.4761 23.1531 34.407 23.1893 34.3712 23.284L33.6202 25.1856C33.6147 25.2024 33.612 25.2163 33.612 25.233C33.612 25.2859 33.6534 25.3332 33.7086 25.3471C33.7279 25.3527 33.7445 25.3555 33.7638 25.3555C33.8107 25.3555 33.8521 25.3332 33.8715 25.2775L34.084 24.704ZM34.1669 24.4701L34.4788 23.6626C34.5119 23.5791 34.5396 23.49 34.5644 23.3953C34.5893 23.49 34.6196 23.5791 34.65 23.6598L34.9564 24.4701H34.1669Z" fill="#5C5C5C"/>
<path d="M38.3237 24.8026C38.3237 24.8026 38.2115 24.29 37.9482 24.2359C38.205 24.1803 38.3844 24.0132 38.3844 23.693C38.3844 23.3505 38.1636 23.1361 37.7633 23.1361H37.1173C36.9212 23.1361 36.8357 23.2225 36.8357 23.4368V25.2021C36.8357 25.2829 36.8909 25.3218 36.9682 25.3218C37.0427 25.3218 37.0952 25.2829 37.0952 25.2049V24.3306H37.6031C38.1553 24.3306 38.1099 25.1614 38.1553 25.294C38.1718 25.3422 38.216 25.3664 38.263 25.3664C38.2823 25.3664 38.3044 25.3636 38.3237 25.358C38.3789 25.3441 38.4148 25.3168 38.4148 25.2639C38.4148 25.2472 38.412 25.2188 38.4065 25.2021L38.3237 24.8026ZM37.0952 24.1023V23.4647C37.0952 23.3979 37.1283 23.3672 37.1863 23.3672H37.7467C37.9924 23.3672 38.1194 23.4953 38.1194 23.732C38.1194 23.9547 37.9648 24.1023 37.7301 24.1023H37.0952Z" fill="#5C5C5C"/>
<path d="M40.0973 24.3058H41.0387C41.105 24.3058 41.1464 24.2529 41.1464 24.1889C41.1464 24.1193 41.1078 24.0691 41.0387 24.0691H40.0973V23.4928C40.0973 23.426 40.125 23.3953 40.1912 23.3953H41.163C41.2348 23.3953 41.2734 23.3424 41.2734 23.2728C41.2734 23.2032 41.2348 23.1531 41.163 23.1531H40.1194C39.9234 23.1531 39.8378 23.2394 39.8378 23.4538V25.0242C39.8378 25.2358 39.9234 25.3221 40.1194 25.3221H41.1878C41.2596 25.3221 41.2983 25.2664 41.2983 25.1996C41.2983 25.13 41.2596 25.0798 41.1878 25.0798H40.1995C40.1388 25.0798 40.0973 25.0548 40.0973 24.9907V24.3058Z" fill="#5C5C5C"/>
</svg>
