<svg width="240" height="41" viewBox="0 0 240 41" fill="none" xmlns="http://www.w3.org/2000/svg">
<path d="M1.68066 30.0364C1.68066 30.0364 2.20254 25.7921 4.5812 24.5698C6.20859 23.7335 8.32016 24.4975 9.15878 23.4382C10.6317 21.5777 9.55255 20.1418 11.8167 18.1739C15.2954 15.1503 20.8574 16.8013 22.8915 14.0903C24.6635 11.7287 22.2805 10.6121 23.433 8.18633C24.5854 5.76053 29.0651 5.18392 32.8686 3.96297C36.2792 2.86817 39.6294 1.83789 39.6294 1.83789" stroke="#C6C6C6" stroke-width="3.02469"/>
<path d="M0.939453 29.6413C0.939453 29.6413 1.8126 25.1436 4.19126 23.9213C5.81865 23.085 7.83773 23.7483 8.67634 22.689C10.1493 20.8285 8.93535 19.6913 11.4364 17.5624C15.6945 13.938 20.0975 16.3326 22.1316 13.6216C23.9036 11.26 21.4909 10.4642 22.673 7.71766C23.8552 4.97113 28.7187 4.44312 32.5222 3.22217C35.9328 2.12737 39.4309 1 39.4309 1" stroke="#D6D6D6" stroke-width="1.20988"/>
<path d="M69.457 23.5363C67.9841 21.6758 69.0633 20.2399 66.7991 18.2719C63.3205 15.2483 57.7584 16.8993 55.7243 14.1883C53.9523 11.8268 56.3353 10.7102 55.1829 8.28439C54.0304 5.85859 49.6494 5.33137 45.8459 4.11042C42.4353 3.01562 39.2332 1.83887 39.2332 1.83887" stroke="#C6C6C6" stroke-width="3.02469"/>
<path d="M69.9355 22.7877C68.4626 20.9272 69.4397 19.6292 67.1755 17.6612C63.6969 14.6376 58.5144 16.4313 56.4803 13.7204C54.7084 11.3588 57.121 10.5629 55.9389 7.81641C54.7567 5.06989 49.7451 4.44312 45.9416 3.22217C42.5311 2.12737 39.1315 1 39.1315 1" stroke="#D6D6D6" stroke-width="1.20988"/>
<path fill-rule="evenodd" clip-rule="evenodd" d="M5.07088 23.1933L5.07167 23.1943C5.33914 23.5471 5.67062 23.8862 6.06913 24.2105C6.48227 24.5334 7.04065 24.9428 7.74631 25.4397C8.51319 25.969 9.14207 26.4437 9.62932 26.8632C10.1442 27.2817 10.5785 27.7581 10.9298 28.2924C11.2992 28.8543 11.4878 29.4685 11.4882 30.127C11.5025 31.418 10.8784 32.4179 9.69088 33.0991L9.6893 33.1L9.68772 33.1009C8.53499 33.748 7.10929 34.0662 5.43147 34.0797L5.42988 34.0798H5.42829C4.30493 34.0798 3.34848 33.9313 2.57506 33.616L2.57386 33.6155L2.57266 33.615C1.83181 33.3073 1.25059 32.901 0.866295 32.378L0.862442 32.3728L0.858763 32.3674C0.502027 31.8468 0.315828 31.2827 0.315828 30.6823C0.315828 30.2399 0.41529 29.8226 0.615529 29.4362C0.81431 29.0394 1.08924 28.7201 1.44394 28.4937C1.88135 28.2074 2.34956 28.0552 2.84245 28.0552C3.1134 28.0552 3.3669 28.1016 3.59756 28.1974C2.80841 27.6575 2.17731 27.199 1.70756 26.823L1.70271 26.8191L1.69799 26.8151C1.21683 26.4044 0.813591 25.9228 0.488994 25.372L0.487064 25.3687L0.485199 25.3654C0.158537 24.7859 0 24.1317 0 23.4133C0 22.5946 0.270508 21.8551 0.79985 21.2077L0.800454 21.2069C1.3335 20.5582 2.03364 20.0613 2.88758 19.7106C3.74193 19.3467 4.66268 19.1665 5.64542 19.1665C5.93762 19.1665 6.16933 19.1731 6.33255 19.1879L6.33679 19.1883L6.34102 19.1888C7.30884 19.2979 8.13685 19.5253 8.81144 19.8844C9.47018 20.235 9.98227 20.6635 10.318 21.1816C10.6438 21.6715 10.8171 22.1936 10.8171 22.7417C10.8171 23.3334 10.627 23.8528 10.2387 24.2739C9.84 24.706 9.31588 24.9145 8.705 24.9145C8.32411 24.9145 7.92335 24.8195 7.50787 24.6475L7.00045 24.4374L7.36112 24.023C7.63979 23.7028 7.79699 23.2628 7.79699 22.6627C7.79699 22.2562 7.71605 21.8608 7.552 21.4738L7.55 21.4691L7.54812 21.4644C7.398 21.083 7.19073 20.7916 6.93234 20.5762L6.92548 20.5704L6.91889 20.5644C6.68309 20.349 6.43409 20.2529 6.15864 20.2529C5.65562 20.2529 5.28095 20.406 4.99683 20.6903C4.70724 20.9801 4.55976 21.3383 4.55976 21.7936C4.55976 22.2756 4.72175 22.7391 5.07007 23.1922L5.07088 23.1933ZM9.98805 21.3986C9.69854 20.9508 9.24454 20.5624 8.62604 20.2332C8.18645 19.9992 7.66708 19.8217 7.06795 19.7008C6.82411 19.6516 6.56707 19.6118 6.29681 19.5813C6.2564 19.5777 6.21034 19.5745 6.15864 19.5718C6.02517 19.565 5.85409 19.5616 5.64542 19.5616C5.56182 19.5616 5.47875 19.5629 5.3962 19.5657C4.5562 19.5936 3.77074 19.7634 3.03984 20.0751C2.23711 20.4044 1.5923 20.8652 1.1054 21.4578C0.631655 22.0372 0.394785 22.6891 0.394785 23.4133C0.394785 24.0718 0.539539 24.6578 0.829047 25.1713C1.13172 25.6849 1.50676 26.1326 1.95418 26.5145C2.41476 26.8832 3.03984 27.3375 3.82941 27.8774C4.46106 28.312 4.94797 28.6609 5.29011 28.9243C5.63226 29.1745 5.9744 29.4642 6.31655 29.7934C6.57974 30.0568 6.77713 30.3465 6.90873 30.6625C7.05348 30.9786 7.12586 31.2946 7.12586 31.6107C7.12586 32.1242 6.95479 32.5588 6.61264 32.9143C6.46888 33.064 6.30124 33.1809 6.10973 33.2651C5.90885 33.3535 5.6817 33.4059 5.42829 33.4223C5.42758 33.4223 5.42688 33.4224 5.42617 33.4224C5.369 33.4261 5.31048 33.4279 5.25063 33.4279C4.90431 33.4279 4.59343 33.362 4.318 33.2303C4.27946 33.2119 4.24161 33.1921 4.20445 33.1711C3.90179 32.9999 3.6715 32.7827 3.51358 32.5193C3.35567 32.2428 3.27671 31.9662 3.27671 31.6897C3.27671 31.3736 3.38199 31.13 3.59254 30.9588C4.0268 30.6033 4.24393 30.2017 4.24393 29.7539C4.24393 29.3852 4.11234 29.0758 3.84915 28.8256C3.58596 28.5754 3.25039 28.4503 2.84245 28.4503C2.4345 28.4503 2.03972 28.5754 1.65809 28.8256C1.36859 29.0099 1.1383 29.2733 0.967222 29.6157C0.796149 29.9449 0.710612 30.3004 0.710612 30.6823C0.710612 31.1959 0.868526 31.6831 1.18435 32.144C1.51334 32.5917 2.02656 32.9604 2.72401 33.2501C3.1505 33.424 3.64572 33.5457 4.20968 33.6152C4.53394 33.6552 4.88093 33.6779 5.25063 33.6834C5.30928 33.6843 5.3685 33.6847 5.42829 33.6847C5.6934 33.6826 5.95121 33.6726 6.20174 33.6548C7.49319 33.5632 8.5908 33.2637 9.49457 32.7563C10.5736 32.1374 11.1066 31.2617 11.0934 30.1292C11.0934 29.5498 10.929 29.0099 10.6 28.5095C10.271 28.0091 9.86303 27.5614 9.37613 27.1663C8.90239 26.7581 8.28389 26.2906 7.52064 25.7639C6.81003 25.2635 6.24417 24.8487 5.82307 24.5195C5.40197 24.1771 5.04666 23.815 4.75715 23.4331C4.36237 22.9195 4.16498 22.373 4.16498 21.7936C4.16498 21.2405 4.34921 20.7797 4.71767 20.4109C4.92856 20.1999 5.1761 20.0493 5.46027 19.959C5.52035 19.9399 5.58206 19.9236 5.64542 19.9099C5.80597 19.8752 5.97705 19.8579 6.15864 19.8579C6.19453 19.8579 6.23007 19.8591 6.26526 19.8615C6.26728 19.8617 6.2693 19.8618 6.27132 19.862C6.50484 19.8791 6.72295 19.9503 6.92565 20.0754C7.01513 20.1307 7.1016 20.1964 7.18508 20.2727C7.5009 20.536 7.74436 20.885 7.91543 21.3196C8.09966 21.7541 8.19178 22.2018 8.19178 22.6627C8.19178 23.1659 8.09204 23.5952 7.89257 23.9506C7.82582 24.0695 7.74791 24.1801 7.65882 24.2825C7.79497 24.3388 7.92693 24.3851 8.0547 24.4214C8.28508 24.4868 8.50184 24.5195 8.705 24.5195C9.21822 24.5195 9.63274 24.3483 9.94857 24.0059C10.2644 23.6635 10.4223 23.2421 10.4223 22.7417C10.4223 22.2809 10.2776 21.8331 9.98805 21.3986ZM6.04008 30.0755C5.71019 29.7583 5.3825 29.4812 5.05718 29.2433L5.05326 29.2404L5.04941 29.2374C4.82854 29.0674 4.54365 28.8592 4.19387 28.6124C4.48873 28.9262 4.63872 29.3136 4.63872 29.7539C4.63872 30.3495 4.34304 30.8548 3.84253 31.2646L3.84149 31.2654C3.73891 31.3488 3.6715 31.4708 3.6715 31.6897C3.6715 31.8865 3.72668 32.095 3.85424 32.3196C3.97256 32.5154 4.14896 32.686 4.39871 32.8272C4.63446 32.9606 4.91455 33.0329 5.25063 33.0329C5.74756 33.0329 6.08939 32.8889 6.32807 32.6405L6.32827 32.6403C6.59646 32.3616 6.73108 32.0266 6.73108 31.6107C6.73108 31.3569 6.67333 31.0968 6.54984 30.8271L6.54697 30.8209L6.54431 30.8145C6.43466 30.5512 6.26865 30.3048 6.04008 30.0755ZM23.1829 29.2334L23.1848 29.3092C23.2005 29.9211 22.9819 30.592 22.5829 31.3082C22.1769 32.0476 21.5538 32.6786 20.7339 33.207C19.8807 33.7569 18.8483 34.0205 17.658 34.0205C16.6045 34.0205 15.6368 33.8121 14.762 33.3885C13.8804 32.9616 13.1732 32.3326 12.6469 31.5071L12.6456 31.505L12.6443 31.503C12.1256 30.6666 11.8744 29.683 11.8744 28.5688C11.8744 27.5087 12.1511 26.5603 12.7132 25.7383L12.7136 25.7377L12.714 25.7371C13.2813 24.9141 14.0335 24.2832 14.9624 23.8464C15.8996 23.3987 16.9117 23.1763 17.9935 23.1763C18.5929 23.1763 19.1891 23.2833 19.7805 23.4942C20.3969 23.7006 20.9375 24.0534 21.3998 24.545C21.8838 25.0596 22.1768 25.7101 22.2923 26.4753L22.3336 26.7493L17.0966 29.592C17.3594 30.0042 17.6644 30.3192 18.0082 30.5465C18.4588 30.8229 18.9384 30.9588 19.4542 30.9588C20.0309 30.9588 20.5825 30.7928 21.1156 30.449C21.6432 30.1088 22.0645 29.6315 22.3778 29.0044L22.7585 28.2426L23.1829 29.2334ZM16.7488 29.7808C16.7097 29.7187 16.6717 29.6548 16.6346 29.5892C16.6207 29.5645 16.6068 29.5395 16.5932 29.5143C16.5795 29.4891 16.566 29.4636 16.5526 29.4379L21.9019 26.5343C21.7966 25.8363 21.5334 25.2635 21.1123 24.8158C20.6912 24.368 20.2043 24.052 19.6516 23.8676C19.0989 23.6701 18.5462 23.5714 17.9935 23.5714C16.9671 23.5714 16.013 23.7821 15.1313 24.2034C14.2628 24.6117 13.5654 25.1977 13.039 25.9614C12.5258 26.712 12.2692 27.5811 12.2692 28.5688C12.2692 29.6222 12.506 30.5309 12.9798 31.2946C13.4667 32.0584 14.1181 32.6378 14.934 33.0329C15.7498 33.4279 16.6578 33.6254 17.658 33.6254C18.7897 33.6254 19.7437 33.3752 20.5202 32.8748C21.2966 32.3744 21.869 31.7884 22.2375 31.1169C22.4636 30.7111 22.6204 30.3354 22.7079 29.9898C22.7681 29.7521 22.7955 29.5286 22.7902 29.3194L22.7309 29.1811C22.707 29.2291 22.6824 29.2763 22.6572 29.3228C22.6444 29.3464 22.6314 29.3698 22.6183 29.3931C22.5329 29.5443 22.4409 29.6873 22.3421 29.8223C22.0595 30.2084 21.7219 30.528 21.3295 30.7811C20.7373 31.1629 20.1122 31.3539 19.4542 31.3539C18.8621 31.3539 18.3094 31.1959 17.7961 30.8798C17.3908 30.613 17.0417 30.2467 16.7488 29.7808ZM16.5921 24.1244C16.3683 24.1903 16.1907 24.4471 16.0591 24.8948C15.9275 25.3293 15.8617 25.8429 15.8617 26.4355C15.8617 27.2724 15.9938 28.059 16.258 28.7953C16.264 28.812 16.2701 28.8287 16.2762 28.8453C16.3164 28.9497 16.3491 29.0296 16.3746 29.0851C16.3835 29.1045 16.3915 29.1209 16.3986 29.1343C16.4045 29.1454 16.4098 29.1544 16.4144 29.1613L18.3094 28.0552C18.309 28.0486 18.3087 28.042 18.3084 28.0354C18.2675 27.2118 18.1165 26.3492 17.8554 25.4479C17.5922 24.5392 17.2369 24.0849 16.7894 24.0849C16.7368 24.0849 16.671 24.0981 16.5921 24.1244ZM17.9006 27.8364C17.8473 27.1126 17.7066 26.3533 17.4762 25.5578C17.3508 25.1249 17.2136 24.8392 17.0806 24.6691C16.9555 24.5092 16.86 24.4805 16.7915 24.48C16.7915 24.48 16.7912 24.48 16.791 24.48C16.7891 24.4803 16.7849 24.4808 16.778 24.4822C16.7645 24.4849 16.7444 24.49 16.7169 24.4992L16.7102 24.5014L16.7034 24.5034C16.7019 24.5039 16.6943 24.5062 16.6801 24.5176C16.6651 24.5297 16.6428 24.552 16.6156 24.5913C16.5595 24.6724 16.497 24.8049 16.4378 25.0063L16.4374 25.0078L16.4369 25.0094C16.3194 25.3974 16.2565 25.8706 16.2565 26.4355C16.2565 27.2036 16.3736 27.9218 16.6052 28.5926L17.9006 27.8364ZM23.1897 24.8288L23.5058 24.7645C24.9547 24.4693 26.2131 23.9904 27.2869 23.3331L27.6265 23.1252L27.9469 23.6595V35.0279C27.9469 35.9246 27.7307 36.6672 27.2172 37.1662C26.748 37.6346 26.1638 37.8765 25.4885 37.8919L25.484 37.892H23.1897V36.9044H24.0725C24.085 36.8719 24.0977 36.8166 24.0977 36.7266V26.0602C24.0977 25.8544 24.0507 25.7738 24.026 25.7463C24.0092 25.7276 23.9628 25.6878 23.8179 25.685L23.1897 25.7422V24.8288ZM24.2394 25.4098C24.4081 25.5325 24.4925 25.7493 24.4925 26.0602V36.7266C24.4925 36.8772 24.4671 37.0023 24.4162 37.1019C24.4092 37.1155 24.4017 37.1287 24.3938 37.1414C24.328 37.2468 24.2293 37.2994 24.0977 37.2994H23.5845V37.497H25.4795C26.0585 37.4838 26.5454 37.2797 26.9402 36.8846C27.3481 36.4896 27.5521 35.8707 27.5521 35.0279V23.7689L27.4929 23.6701C27.4441 23.7 27.3949 23.7295 27.3454 23.7587C27.3396 23.7621 27.3338 23.7655 27.328 23.7689C27.2716 23.802 27.2147 23.8346 27.1573 23.8667C26.3036 24.3451 25.3493 24.7192 24.2943 24.9889C24.1324 25.0303 23.9682 25.0692 23.8016 25.1057C23.7962 25.1069 23.7907 25.1081 23.7852 25.1093C23.7187 25.1238 23.6518 25.1379 23.5845 25.1516V25.3096L23.8016 25.2898C23.8653 25.2898 23.9245 25.2947 23.9793 25.3045C24.0812 25.3227 24.1678 25.3578 24.2394 25.4098ZM26.0124 19.6208C26.5402 19.6208 27.0019 19.8153 27.3773 20.1909C27.7526 20.5664 27.9469 21.0285 27.9469 21.5566C27.9469 22.0847 27.7526 22.5467 27.3773 22.9223C27.0019 23.2979 26.5402 23.4923 26.0124 23.4923C25.4847 23.4923 25.023 23.2979 24.6476 22.9223C24.2723 22.5467 24.078 22.0847 24.078 21.5566C24.078 21.0285 24.2723 20.5664 24.6476 20.1909C25.023 19.8153 25.4847 19.6208 26.0124 19.6208ZM40.7328 33.9415H37.0953L37.0898 33.9413C36.5796 33.9271 36.1309 33.8278 35.7922 33.5959L35.7865 33.592L35.781 33.5879C35.6349 33.4803 35.5208 33.3434 35.433 33.185C35.1934 33.4403 34.8973 33.6525 34.5502 33.8223L34.547 33.8239L34.5437 33.8254C33.893 34.1293 33.1703 34.2773 32.3831 34.2773C31.6916 34.2773 31.0312 34.157 30.4051 33.9149C29.7713 33.6699 29.2507 33.3098 28.8592 32.8277L28.855 32.8225L28.8509 32.8171C28.4559 32.2953 28.2977 31.675 28.3578 30.9839L28.358 30.9817L28.3582 30.9795C28.431 30.2365 28.6897 29.5997 29.1499 29.0931L29.1502 29.0927C29.5927 28.6071 30.1035 28.2318 30.6815 27.9715L30.6831 27.9707L30.6848 27.97C30.706 27.9607 30.7274 27.9514 30.749 27.942C30.2947 27.899 29.8846 27.7584 29.5306 27.5092L29.5277 27.5071L29.5249 27.505C29.059 27.1644 28.8498 26.6501 28.8498 26.0404C28.8498 25.3943 29.1634 24.8535 29.7101 24.427C30.235 24.0047 30.8916 23.6948 31.6659 23.4869C32.4382 23.2664 33.2369 23.1566 34.061 23.1566C35.6297 23.1566 36.9818 23.4912 38.0969 24.1828C39.3055 24.9186 39.8445 26.3204 39.8445 28.2132V32.7761C39.8445 32.8501 39.851 32.9027 39.8592 32.9382C39.8605 32.9441 39.8619 32.9493 39.8632 32.9539H40.7328V33.9415ZM37.8904 24.5195C37.0738 24.0127 36.1111 23.7049 35.0023 23.5962C34.6994 23.5665 34.3856 23.5516 34.061 23.5516C34.0578 23.5516 34.0546 23.5516 34.0514 23.5516C34.05 23.5516 34.0486 23.5516 34.0472 23.5516C33.8392 23.5519 33.6331 23.5596 33.4288 23.5745C32.8622 23.616 32.3097 23.7137 31.7712 23.8676C31.0343 24.0652 30.4289 24.3549 29.9552 24.7368C29.4815 25.1055 29.2446 25.54 29.2446 26.0404C29.2446 26.554 29.4157 26.9359 29.7578 27.1861C30.1131 27.4363 30.5474 27.5614 31.0606 27.5614C31.5738 27.5614 32.0805 27.456 32.5805 27.2453C32.9035 27.1127 33.164 26.9619 33.3619 26.7927C33.4784 26.6931 33.5733 26.5872 33.6464 26.475C33.5091 26.431 33.3856 26.3779 33.2758 26.3156C33.1225 26.2286 32.996 26.1237 32.8963 26.0009C32.7384 25.7902 32.6595 25.5532 32.6595 25.2898C32.6595 24.9211 32.7911 24.5919 33.0543 24.3022C33.19 24.1528 33.3451 24.0401 33.5194 23.9642C33.6829 23.8931 33.8635 23.8543 34.061 23.8479C34.4057 23.8318 34.6845 23.8769 34.8974 23.9831C35.0339 24.0511 35.1433 24.1444 35.2256 24.2627C35.4337 24.5491 35.539 25.035 35.5414 25.7204C35.5414 25.7283 35.5414 25.7362 35.5414 25.7441C35.5414 25.965 35.4836 26.1634 35.3679 26.3392C35.3417 26.379 35.3125 26.4177 35.2804 26.4552C35.2514 26.4891 35.2199 26.522 35.1861 26.554C35.1796 26.5602 35.173 26.5663 35.1664 26.5724C35.0625 26.6678 34.9463 26.7563 34.8177 26.838C34.6732 26.9298 34.5131 27.0129 34.3373 27.0873C34.0083 27.219 33.528 27.3836 32.8963 27.5811C32.0673 27.8445 31.383 28.0947 30.8435 28.3317C30.3171 28.5688 29.8499 28.9111 29.442 29.3589C29.0472 29.7934 28.8169 30.3465 28.7511 31.0181C28.6985 31.6238 28.8366 32.144 29.1656 32.5786C29.5078 32.9999 29.9684 33.3226 30.5474 33.5464C31.1264 33.7703 31.7383 33.8822 32.3831 33.8822C33.1201 33.8822 33.7846 33.744 34.3768 33.4674C34.7507 33.2845 35.0485 33.0517 35.2703 32.7691C35.2741 32.7641 35.278 32.7592 35.2818 32.7543C35.3292 32.6927 35.3731 32.6288 35.4134 32.5626C35.415 32.5598 35.4167 32.557 35.4184 32.5542C35.4814 32.4496 35.5356 32.3392 35.5809 32.223C35.5867 32.2982 35.5947 32.3698 35.605 32.438C35.6277 32.5886 35.6615 32.722 35.7063 32.8381C35.7797 33.0283 35.8826 33.1722 36.0151 33.2699C36.2652 33.4411 36.6271 33.5333 37.1008 33.5464H40.338V33.3489H39.8445C39.69 33.3489 39.5808 33.2831 39.517 33.1514C39.4722 33.0588 39.4498 32.9337 39.4498 32.7761V28.2132C39.4498 26.3828 38.93 25.1516 37.8904 24.5195ZM35.5611 26.4552C35.5052 26.5485 35.4417 26.6466 35.3707 26.7496L35.3704 26.75C35.3082 26.8403 35.2402 26.9342 35.1664 27.0319C35.1414 27.065 35.1157 27.0985 35.0894 27.1324C34.8438 27.4489 34.5405 27.8026 34.1794 28.1935C33.8241 28.6017 33.5477 28.9243 33.3503 29.1613C33.1661 29.3852 33.0148 29.6222 32.8963 29.8724C32.7253 30.2017 32.6397 30.5506 32.6397 30.9193C32.6397 31.1959 32.6924 31.4592 32.7976 31.7094C32.9029 31.9465 33.0543 32.144 33.2516 32.302C33.3832 32.4074 33.5477 32.493 33.7451 32.5588C33.9425 32.6246 34.1399 32.6576 34.3373 32.6576C34.5859 32.6576 34.8082 32.5937 35.0042 32.4658C35.0676 32.4245 35.1282 32.3765 35.1861 32.3218C35.1882 32.3196 35.1904 32.3174 35.1925 32.3153C35.2134 32.294 35.2334 32.2716 35.2525 32.2483C35.2831 32.2108 35.3115 32.1707 35.3375 32.128C35.3431 32.1189 35.3485 32.1097 35.3539 32.1003C35.4824 31.8755 35.5515 31.5806 35.5611 31.2156V26.4552ZM35.1664 27.6678V31.2102C35.154 31.6513 35.0454 31.9013 34.9107 32.0386C34.7489 32.1897 34.5646 32.2625 34.3373 32.2625C34.1846 32.2625 34.0293 32.2372 33.87 32.184C33.7068 32.1296 33.5861 32.0638 33.4983 31.9935C33.3524 31.8768 33.2401 31.7316 33.1599 31.5525C33.0765 31.3528 33.0345 31.1428 33.0345 30.9193C33.0345 30.6145 33.1046 30.328 33.2466 30.0547L33.25 30.0482L33.2531 30.0416C33.3568 29.8224 33.4901 29.6131 33.6543 29.4134C33.8483 29.1806 34.1209 28.8621 34.4733 28.4573C34.7313 28.1779 34.9626 27.9147 35.1664 27.6678ZM34.187 26.722C34.4929 26.5921 34.7326 26.4385 34.9152 26.2666C35.0758 26.1148 35.1466 25.9476 35.1466 25.7441C35.1466 25.0629 35.0393 24.6781 34.9063 24.4951L34.9039 24.4917L34.9015 24.4883C34.8041 24.3482 34.5866 24.2189 34.0793 24.2425L34.0765 24.2427L34.0737 24.2427C33.7673 24.2526 33.5343 24.3611 33.3464 24.5679C33.1448 24.7899 33.0543 25.0258 33.0543 25.2898C33.0543 25.4651 33.104 25.6171 33.2075 25.7577C33.3189 25.8921 33.4949 26.0117 33.7668 26.0987L34.26 26.2567L33.9771 26.6908C33.9428 26.7435 33.9052 26.7945 33.8647 26.8437C33.9858 26.8 34.0932 26.7595 34.187 26.722ZM52.9697 32.9539V33.9415H49.352L49.3465 33.9413C48.8345 33.9271 48.3845 33.8272 48.0369 33.6011L48.0272 33.5948L48.0179 33.5879C47.8869 33.4914 47.7816 33.3713 47.698 33.2333C47.5416 33.3732 47.356 33.4955 47.1492 33.6017C46.5717 33.898 45.916 34.0402 45.1925 34.0402C44.4448 34.0402 43.732 33.867 43.0588 33.523C42.3592 33.1655 41.7995 32.59 41.3733 31.8223C40.936 31.0346 40.7314 30.0472 40.7314 28.8848C40.7314 27.5806 41.0057 26.4821 41.589 25.6212L41.5894 25.6206L41.5898 25.62C42.1666 24.7753 42.8879 24.1625 43.755 23.8004C44.5897 23.4388 45.4382 23.2553 46.2979 23.2553C46.7164 23.2553 47.0949 23.2892 47.423 23.3664V20.6282C47.423 20.4224 47.376 20.3418 47.3513 20.3143C47.3345 20.2956 47.2881 20.2558 47.1432 20.2531L46.515 20.3102V19.3975L46.8303 19.3326C49.134 18.8584 50.6367 18.375 51.3999 17.9023L51.7403 17.6914L52.0617 18.2275V32.7761C52.0617 32.866 52.0745 32.9214 52.087 32.9539H52.9697ZM47.5715 19.9829C47.7357 20.1065 47.8178 20.3216 47.8178 20.6282V23.9269C47.7043 23.8658 47.5727 23.8147 47.423 23.7739C47.3142 23.7441 47.1957 23.7198 47.0677 23.7008C46.9066 23.6769 46.7302 23.6615 46.5387 23.6546C46.461 23.6518 46.3807 23.6504 46.2979 23.6504C45.4952 23.6504 44.699 23.8216 43.9094 24.1639C43.1199 24.4931 42.4553 25.0528 41.9158 25.8429C41.3894 26.6198 41.1262 27.6338 41.1262 28.8848C41.1262 30.0041 41.3236 30.9193 41.7184 31.6304C42.1132 32.3415 42.6198 32.8551 43.2383 33.1711C43.8568 33.4872 44.5082 33.6452 45.1925 33.6452C45.8636 33.6452 46.4558 33.5135 46.969 33.2501C47.2041 33.1295 47.3908 32.9951 47.5292 32.8469C47.5599 32.8141 47.5881 32.7806 47.614 32.7465C47.717 32.6107 47.7826 32.4643 47.8108 32.3072C47.8135 32.2924 47.8158 32.2775 47.8178 32.2625V32.223C47.8188 32.2363 47.8199 32.2495 47.8211 32.2625L47.8211 32.263C47.8227 32.281 47.8245 32.2987 47.8263 32.3163C47.8337 32.3851 47.843 32.4507 47.8544 32.5131C47.8827 32.6678 47.9236 32.8028 47.9771 32.918C48.0472 33.0691 48.1388 33.1864 48.2521 33.2699C48.5153 33.4411 48.8837 33.5333 49.3575 33.5464H52.575V33.3489H52.0617C51.9301 33.3489 51.8314 33.2962 51.7656 33.1909C51.7577 33.1782 51.7503 33.165 51.7433 33.1514C51.6924 33.0517 51.667 32.9266 51.667 32.7761V18.3369L51.6077 18.2382C51.5794 18.2557 51.5501 18.2733 51.5201 18.2908C51.4936 18.3062 51.4665 18.3216 51.4388 18.3369C51.3857 18.3663 51.3301 18.3956 51.2722 18.4248C50.4962 18.8163 49.284 19.196 47.6355 19.5641C47.4704 19.601 47.3008 19.6377 47.1269 19.6744C47.1215 19.6755 47.116 19.6767 47.1106 19.6778C47.0443 19.6918 46.9774 19.7057 46.9098 19.7196V19.8776L47.1269 19.8579C47.1905 19.8579 47.2498 19.8628 47.3046 19.8726C47.4097 19.8913 47.4987 19.9281 47.5715 19.9829ZM47.5801 32.217C47.5871 32.2061 47.5939 32.1949 47.6007 32.1835C47.7323 31.9596 47.8046 31.6238 47.8178 31.1761V24.954C47.8178 24.6856 47.7656 24.4646 47.6611 24.2912C47.6543 24.2798 47.6472 24.2686 47.6399 24.2576C47.6274 24.239 47.6144 24.2209 47.6007 24.2034C47.4559 24.0191 47.2783 23.9269 47.0677 23.9269C46.9208 23.9269 46.7739 23.9693 46.627 24.054C46.4844 24.1363 46.3418 24.2586 46.1992 24.4207C45.9097 24.7368 45.6662 25.2306 45.4688 25.9022C45.2714 26.5738 45.1727 27.41 45.1727 28.4107C45.1727 29.2272 45.2714 29.9515 45.4688 30.5835C45.6662 31.2025 45.9097 31.6831 46.1992 32.0255C46.5019 32.3547 46.7914 32.5193 47.0677 32.5193C47.1661 32.5193 47.2556 32.4976 47.3362 32.4543C47.3714 32.4354 47.4049 32.4123 47.4368 32.3851C47.4769 32.3508 47.5143 32.3099 47.5489 32.2625C47.5537 32.256 47.5584 32.2494 47.5631 32.2426C47.566 32.2384 47.5689 32.234 47.5718 32.2297C47.5733 32.2275 47.5748 32.2252 47.5762 32.223C47.5775 32.221 47.5788 32.219 47.5801 32.217ZM46.4953 31.7641C46.7651 32.0556 46.9548 32.1242 47.0677 32.1242C47.1268 32.1242 47.1862 32.1094 47.2604 31.9832C47.3417 31.8449 47.4101 31.59 47.423 31.1701V24.954C47.423 24.6959 47.364 24.5415 47.2902 24.4475C47.2107 24.3462 47.1423 24.322 47.0677 24.322C46.9394 24.322 46.7488 24.3937 46.4956 24.6817L46.4929 24.6847L46.4902 24.6877C46.2593 24.9397 46.0375 25.3675 45.8476 26.0136C45.6643 26.6372 45.5675 27.4329 45.5675 28.4107C45.5675 29.1957 45.6625 29.8787 45.8453 30.4647C46.032 31.0496 46.2531 31.4753 46.4953 31.7641ZM61.7308 33.9415L61.7253 33.9413C61.2151 33.9271 60.7663 33.8278 60.4277 33.5959L60.422 33.592L60.4164 33.5879C60.2704 33.4803 60.1563 33.3434 60.0685 33.185C59.8289 33.4403 59.5328 33.6525 59.1856 33.8223L59.1824 33.8239L59.1792 33.8254C58.5284 34.1293 57.8058 34.2773 57.0186 34.2773C56.327 34.2773 55.6667 34.157 55.0406 33.9149C54.4068 33.6699 53.8862 33.3098 53.4947 32.8277L53.4905 32.8225L53.4864 32.8171C53.0914 32.2953 52.9332 31.675 52.9933 30.9839L52.9935 30.9817L52.9937 30.9795C53.0665 30.2365 53.3251 29.5997 53.7853 29.0931L53.7857 29.0927C54.2282 28.6071 54.7389 28.2318 55.3169 27.9715L55.3186 27.9707L55.3202 27.97C55.3414 27.9607 55.3628 27.9514 55.3844 27.942C54.9302 27.899 54.52 27.7584 54.1661 27.5092L54.1632 27.5071L54.1603 27.505C53.6945 27.1644 53.4853 26.6501 53.4853 26.0404C53.4853 25.3943 53.7989 24.8535 54.3457 24.4269C54.8705 24.0046 55.5271 23.6948 56.3013 23.4869C57.0736 23.2664 57.8724 23.1566 58.6964 23.1566C60.2651 23.1566 61.6172 23.4911 62.7323 24.1827C63.9409 24.9184 64.48 26.3203 64.48 28.2132V32.7761C64.48 32.8501 64.4865 32.9027 64.4947 32.9382C64.496 32.9441 64.4974 32.9493 64.4987 32.9539H66.2337C66.2357 32.9472 66.2378 32.9393 66.2399 32.9299C66.2486 32.8909 66.2552 32.8344 66.2552 32.7563V20.6282C66.2552 20.42 66.2086 20.3377 66.1846 20.3101C66.1701 20.2934 66.1297 20.2559 65.9949 20.2531L65.3669 20.3102V19.3979L65.6817 19.3327C67.972 18.8586 69.4686 18.3752 70.2321 17.9023L70.5296 17.718L70.9136 18.1983V24.7164C71.0647 24.5786 71.2275 24.4419 71.4016 24.3064L71.4037 24.3048L71.4057 24.3032C71.9189 23.9146 72.4459 23.6179 72.9869 23.4183C73.3507 23.282 73.7399 23.2158 74.1508 23.2158C74.9589 23.2158 75.6625 23.4892 76.2384 24.0352C76.8451 24.6103 77.1117 25.4576 77.1117 26.4947V32.7761C77.1117 32.866 77.1245 32.9214 77.137 32.9539H78V33.9415H61.7308ZM72.4318 32.9539C72.4338 32.9472 72.4359 32.9393 72.438 32.9299C72.4467 32.8909 72.4533 32.8344 72.4533 32.7563V26.3367C72.4533 25.8898 72.3946 25.614 72.3183 25.4636C72.2831 25.394 72.2509 25.3648 72.2315 25.352C72.2143 25.3407 72.1879 25.3293 72.1375 25.3293C72.0101 25.3293 71.8113 25.392 71.5287 25.6035C71.2901 25.7907 71.0856 25.9939 70.9136 26.2125V32.7761C70.9136 32.8459 70.92 32.8955 70.9278 32.9288C70.9303 32.9393 70.9327 32.9475 70.9349 32.9539H72.4318ZM70.5909 33.1514C70.5429 33.0587 70.5188 32.9336 70.5188 32.7761V26.0799C70.5743 26.0036 70.633 25.9291 70.6948 25.8565C70.7329 25.8118 70.7722 25.7677 70.8127 25.7244C70.8455 25.6892 70.8792 25.6545 70.9136 25.6203C71.0296 25.505 71.1546 25.3948 71.2887 25.2898C71.4694 25.1542 71.6394 25.0573 71.7986 24.9993C71.9176 24.956 72.0305 24.9343 72.1375 24.9343C72.6112 24.9343 72.8481 25.4018 72.8481 26.3367V32.7563C72.8481 32.9233 72.8246 33.055 72.7775 33.1514C72.7133 33.2831 72.6052 33.3489 72.4533 33.3489H71.9598V33.5464H77.6052V33.3489H77.1117C76.9801 33.3489 76.654 33.4013 76.5882 33.296C76.5803 33.2833 76.4471 33.2602 76.4401 33.2466C76.3892 33.147 76.7169 32.9266 76.7169 32.7761V26.4947C76.7169 25.5203 76.4669 24.796 75.9669 24.322C75.4668 23.8479 74.8615 23.6109 74.1508 23.6109C73.7824 23.6109 73.4402 23.6701 73.1244 23.7886C72.6244 23.973 72.1309 24.2495 71.644 24.6182C71.6292 24.6297 71.6146 24.6412 71.6001 24.6527C71.4262 24.7898 71.266 24.9269 71.1194 25.064C71.118 25.0653 71.1165 25.0666 71.1151 25.0679C71.0448 25.1338 70.9776 25.1997 70.9136 25.2656C70.765 25.4185 70.6335 25.5715 70.5188 25.7244V18.3369L70.4399 18.2382C70.3866 18.2712 70.3303 18.3041 70.271 18.3369C70.2239 18.363 70.1749 18.389 70.1241 18.415C69.3496 18.8102 68.1347 19.1936 66.4795 19.565C66.3168 19.6015 66.15 19.6379 65.9788 19.6741C65.9734 19.6753 65.9679 19.6764 65.9624 19.6776C65.8962 19.6916 65.8292 19.7056 65.7617 19.7196V19.8776L65.9788 19.8579C66.0426 19.8579 66.1018 19.8631 66.1565 19.8735C66.2574 19.8928 66.3428 19.9298 66.4127 19.9845C66.5709 20.1083 66.6499 20.3229 66.6499 20.6282V32.7563C66.6499 32.9233 66.7656 33.1008 66.7186 33.1972C66.6544 33.3289 66.4071 33.296 66.2552 33.296H65.7617V33.5923H71.4071V33.3489H70.9136C70.7629 33.3414 70.6553 33.2755 70.5909 33.1514ZM62.5258 24.5195C61.7093 24.0127 60.7466 23.7049 59.6377 23.5962C59.3349 23.5665 59.0211 23.5516 58.6964 23.5516C58.6932 23.5516 58.6901 23.5516 58.6869 23.5516C58.6855 23.5516 58.6841 23.5516 58.6827 23.5516C58.4747 23.5519 58.2686 23.5596 58.0643 23.5745C57.4977 23.616 56.9452 23.7137 56.4067 23.8676C55.6697 24.0652 55.0644 24.3549 54.5907 24.7368C54.1169 25.1055 53.8801 25.54 53.8801 26.0404C53.8801 26.554 54.0511 26.9359 54.3933 27.1861C54.7486 27.4363 55.1828 27.5614 55.6961 27.5614C56.2093 27.5614 56.7159 27.456 57.216 27.2453C57.539 27.1127 57.7995 26.9619 57.9974 26.7927C58.1139 26.6931 58.2088 26.5872 58.2819 26.475C58.1446 26.431 58.021 26.3779 57.9112 26.3156C57.758 26.2286 57.6315 26.1237 57.5318 26.0009C57.3739 25.7902 57.2949 25.5532 57.2949 25.2898C57.2949 24.9211 57.4265 24.5919 57.6897 24.3022C57.8255 24.1528 57.9805 24.0401 58.1548 23.9642C58.3184 23.8931 58.4989 23.8543 58.6964 23.8479C59.0412 23.8318 59.32 23.8769 59.5329 23.9831C59.6694 24.0511 59.7788 24.1444 59.861 24.2627C60.0692 24.5491 60.1745 25.035 60.1768 25.7204C60.1769 25.7283 60.1769 25.7362 60.1769 25.7441C60.1769 25.965 60.119 26.1634 60.0033 26.3392C59.9771 26.379 59.948 26.4177 59.9158 26.4552C59.8868 26.4891 59.8554 26.522 59.8216 26.554C59.815 26.5602 59.8085 26.5663 59.8018 26.5724C59.698 26.6678 59.5818 26.7563 59.4532 26.838C59.3087 26.9298 59.1485 27.0129 58.9728 27.0873C58.6438 27.219 58.1635 27.3836 57.5318 27.5811C56.7028 27.8445 56.0185 28.0947 55.4789 28.3317C54.9526 28.5688 54.4854 28.9111 54.0775 29.3589C53.6827 29.7934 53.4524 30.3465 53.3866 31.0181C53.3339 31.6238 53.4721 32.144 53.8011 32.5786C54.1432 32.9999 54.6038 33.3226 55.1828 33.5464C55.7619 33.7703 56.3738 33.8822 57.0186 33.8822C57.7555 33.8822 58.4201 33.744 59.0123 33.4674C59.3862 33.2845 59.684 33.0517 59.9057 32.7691C59.9096 32.7641 59.9134 32.7592 59.9172 32.7542C59.9647 32.6927 60.0085 32.6288 60.0488 32.5626C60.0505 32.5598 60.0522 32.557 60.0539 32.5542C60.1169 32.4496 60.171 32.3392 60.2164 32.223C60.2221 32.2982 60.2302 32.3698 60.2405 32.438C60.2632 32.5886 60.297 32.722 60.3418 32.8382C60.4152 33.0283 60.5181 33.1722 60.6506 33.2699C60.9006 33.4411 61.2625 33.5333 61.7363 33.5464H64.9735V33.3489H64.48C64.3255 33.3489 64.2163 33.2831 64.1525 33.1514C64.1077 33.0588 64.0852 32.9337 64.0852 32.7761V28.2132C64.0852 26.3828 63.5654 25.1516 62.5258 24.5195ZM60.1966 26.4552C60.1407 26.5485 60.0772 26.6466 60.0062 26.7496L60.0059 26.75C59.9437 26.8403 59.8756 26.9342 59.8018 27.0319C59.7768 27.065 59.7512 27.0985 59.7249 27.1324C59.4793 27.4489 59.176 27.8026 58.8149 28.1935C58.4596 28.6017 58.1832 28.9243 57.9858 29.1613C57.8016 29.3852 57.6503 29.6222 57.5318 29.8724C57.3607 30.2017 57.2752 30.5506 57.2752 30.9193C57.2752 31.1959 57.3278 31.4592 57.4331 31.7094C57.5384 31.9465 57.6897 32.144 57.8871 32.302C58.0187 32.4074 58.1832 32.493 58.3806 32.5588C58.578 32.6246 58.7754 32.6576 58.9728 32.6576C59.2214 32.6576 59.4436 32.5937 59.6396 32.4659C59.703 32.4245 59.7637 32.3765 59.8216 32.3218C59.8237 32.3196 59.8259 32.3174 59.828 32.3153C59.8489 32.294 59.8689 32.2716 59.888 32.2483C59.9186 32.2108 59.9469 32.1707 59.973 32.128C59.9785 32.1189 59.984 32.1097 59.9893 32.1003C60.1179 31.8755 60.187 31.5806 60.1966 31.2156V26.4552ZM59.8018 27.6678V31.2103C59.7895 31.6513 59.6809 31.9012 59.5462 32.0386C59.3844 32.1897 59.2 32.2625 58.9728 32.2625C58.8201 32.2625 58.6648 32.2372 58.5054 32.184C58.3422 32.1296 58.2216 32.0638 58.1337 31.9935C57.9879 31.8768 57.8757 31.7317 57.7955 31.5526C57.712 31.3529 57.67 31.1429 57.67 30.9193C57.67 30.6145 57.7401 30.328 57.8821 30.0547L57.8855 30.0482L57.8886 30.0416C57.9923 29.8224 58.1256 29.6131 58.2898 29.4134C58.4837 29.1806 58.7564 28.8622 59.1087 28.4574C59.3667 28.178 59.5981 27.9147 59.8018 27.6678ZM58.8225 26.722C59.1283 26.5921 59.3679 26.4386 59.5505 26.2668C59.7112 26.1149 59.7821 25.9477 59.7821 25.7441C59.7821 25.0629 59.6748 24.6781 59.5418 24.4951L59.5393 24.4917L59.537 24.4883C59.4396 24.3482 59.2221 24.2189 58.7148 24.2425L58.712 24.2427L58.7092 24.2427C58.4028 24.2526 58.1698 24.3611 57.9818 24.5679C57.7803 24.7899 57.6897 25.0258 57.6897 25.2898C57.6897 25.4651 57.7395 25.6171 57.843 25.7577C57.9544 25.8921 58.1304 26.0117 58.4022 26.0987L58.8955 26.2567L58.6126 26.6908C58.5782 26.7435 58.5407 26.7945 58.5002 26.8437C58.6213 26.8 58.7287 26.7595 58.8225 26.722ZM27.0981 20.4702C26.7954 20.1673 26.4335 20.0159 26.0124 20.0159C25.5913 20.0159 25.2295 20.1673 24.9268 20.4702C24.6241 20.7731 24.4728 21.1352 24.4728 21.5566C24.4728 21.978 24.6241 22.3401 24.9268 22.643C25.2295 22.9459 25.5913 23.0973 26.0124 23.0973C26.4335 23.0973 26.7954 22.9459 27.0981 22.643C27.4008 22.3401 27.5521 21.978 27.5521 21.5566C27.5521 21.1352 27.4008 20.7731 27.0981 20.4702Z" fill="white"/>
<path d="M4.75495 23.4332C5.04446 23.8151 5.39976 24.1772 5.82086 24.5196C6.24197 24.8488 6.80783 25.2636 7.51844 25.764C8.28169 26.2908 8.90018 26.7582 9.37393 27.1665C9.86083 27.5615 10.2688 28.0092 10.5978 28.5096C10.9267 29.01 11.0912 29.5499 11.0912 30.1294C11.1044 31.2618 10.5714 32.1375 9.49236 32.7565C8.41328 33.3622 7.05786 33.6717 5.42608 33.6848C4.33384 33.6848 3.43242 33.54 2.72181 33.2503C2.02435 32.9606 1.51113 32.5919 1.18215 32.1441C0.866319 31.6832 0.708406 31.196 0.708406 30.6824C0.708406 30.3005 0.793942 29.945 0.965016 29.6158C1.13609 29.2734 1.36638 29.01 1.65589 28.8257C2.03751 28.5755 2.4323 28.4504 2.84024 28.4504C3.24819 28.4504 3.58375 28.5755 3.84694 28.8257C4.11013 29.0759 4.24173 29.3853 4.24173 29.7541C4.24173 30.2018 4.0246 30.6034 3.59033 30.959C3.37978 31.1302 3.2745 31.3738 3.2745 31.6898C3.2745 31.9664 3.35346 32.2429 3.51138 32.5194C3.66929 32.7828 3.89958 33.0001 4.20225 33.1713C4.50492 33.3425 4.85364 33.428 5.24843 33.428C5.82744 33.428 6.28145 33.2569 6.61043 32.9145C6.95258 32.5589 7.12365 32.1244 7.12365 31.6108C7.12365 31.2948 7.05128 30.9787 6.90652 30.6627C6.77493 30.3466 6.57754 30.0569 6.31435 29.7936C5.9722 29.4644 5.63005 29.1746 5.28791 28.9244C4.94576 28.6611 4.45886 28.3121 3.8272 27.8776C3.03763 27.3377 2.41256 26.8833 1.95198 26.5146C1.50455 26.1327 1.12951 25.685 0.826841 25.1715C0.537332 24.6579 0.392578 24.0719 0.392578 23.4135C0.392578 22.6892 0.629449 22.0374 1.10319 21.458C1.59009 20.8654 2.23491 20.4045 3.03763 20.0753C3.84036 19.7329 4.70889 19.5617 5.64321 19.5617C5.93272 19.5617 6.14985 19.5683 6.29461 19.5815C7.22893 19.6868 8.00534 19.9041 8.62383 20.2333C9.24233 20.5625 9.69633 20.951 9.98584 21.3987C10.2753 21.8333 10.4201 22.281 10.4201 22.7419C10.4201 23.2423 10.2622 23.6637 9.94636 24.006C9.63054 24.3484 9.21601 24.5196 8.70279 24.5196C8.38696 24.5196 8.03824 24.4406 7.65661 24.2826C8.01192 23.8744 8.18957 23.3345 8.18957 22.6629C8.18957 22.202 8.09746 21.7542 7.91322 21.3197C7.74215 20.8851 7.4987 20.5362 7.18287 20.2728C6.8802 19.9963 6.53806 19.858 6.15643 19.858C5.56425 19.858 5.08393 20.0424 4.71547 20.4111C4.347 20.7798 4.16277 21.2407 4.16277 21.7938C4.16277 22.3732 4.36016 22.9197 4.75495 23.4332Z" fill="#444444"/>
<path d="M22.788 29.3195C22.8011 29.8331 22.6169 30.4322 22.2353 31.117C21.8668 31.7886 21.2944 32.3746 20.518 32.875C19.7415 33.3754 18.7875 33.6256 17.6558 33.6256C16.6556 33.6256 15.7476 33.428 14.9317 33.033C14.1159 32.6379 13.4645 32.0585 12.9776 31.2948C12.5038 30.531 12.267 29.6224 12.267 28.5689C12.267 27.5813 12.5236 26.7122 13.0368 25.9616C13.5632 25.1978 14.2606 24.6118 15.1291 24.2036C16.0108 23.7822 16.9649 23.5715 17.9913 23.5715C18.544 23.5715 19.0967 23.6703 19.6494 23.8678C20.2021 24.0521 20.689 24.3682 21.1101 24.8159C21.5312 25.2636 21.7944 25.8365 21.8997 26.5344L16.5504 29.438C16.8794 30.0701 17.2939 30.5507 17.7939 30.88C18.3072 31.196 18.8599 31.354 19.452 31.354C20.11 31.354 20.7351 31.1631 21.3273 30.7812C21.9194 30.3993 22.3866 29.866 22.7287 29.1812L22.788 29.3195ZM16.274 28.8454C16.3398 29.0166 16.3859 29.122 16.4122 29.1615L18.3072 28.0553C18.2677 27.2257 18.1163 26.3566 17.8532 25.448C17.59 24.5394 17.2347 24.0851 16.7872 24.0851C16.7346 24.0851 16.6688 24.0982 16.5898 24.1246C16.3661 24.1904 16.1885 24.4472 16.0569 24.8949C15.9253 25.3295 15.8595 25.843 15.8595 26.4356C15.8595 27.2916 15.9977 28.0948 16.274 28.8454Z" fill="#444444"/>
<path d="M26.0102 20.016C26.4313 20.016 26.7932 20.1675 27.0959 20.4703C27.3986 20.7732 27.5499 21.1353 27.5499 21.5567C27.5499 21.9781 27.3986 22.3402 27.0959 22.6431C26.7932 22.946 26.4313 23.0974 26.0102 23.0974C25.5891 23.0974 25.2272 22.946 24.9246 22.6431C24.6219 22.3402 24.4706 21.9781 24.4706 21.5567C24.4706 21.1353 24.6219 20.7732 24.9246 20.4703C25.2272 20.1675 25.5891 20.016 26.0102 20.016ZM23.5823 25.1517C25.0693 24.8488 26.3721 24.355 27.4907 23.6703L27.5499 23.769V35.028C27.5499 35.8708 27.3459 36.4897 26.938 36.8848C26.5432 37.2798 26.0563 37.4839 25.4773 37.4971H23.5823V37.2996H24.0955C24.2271 37.2996 24.3258 37.2469 24.3916 37.1415C24.4574 37.0362 24.4903 36.8979 24.4903 36.7267V26.0603C24.4903 25.5468 24.26 25.29 23.7994 25.29L23.5823 25.3097V25.1517Z" fill="#444444"/>
<path d="M40.3358 33.5466H38.1842H37.0986C36.6248 33.5334 36.263 33.4412 36.0129 33.27C35.7629 33.0857 35.6181 32.7367 35.5787 32.2231C35.3681 32.763 34.9668 33.1778 34.3746 33.4676C33.7824 33.7441 33.1178 33.8824 32.3809 33.8824C31.7361 33.8824 31.1242 33.7704 30.5452 33.5466C29.9661 33.3227 29.5056 33.0001 29.1634 32.5787C28.8344 32.1441 28.6963 31.624 28.7489 31.0182C28.8147 30.3466 29.045 29.7936 29.4398 29.359C29.8477 28.9113 30.3149 28.5689 30.8413 28.3319C31.3808 28.0948 32.0651 27.8446 32.8941 27.5813C33.5258 27.3837 34.0061 27.2191 34.3351 27.0875C34.6772 26.9426 34.9602 26.7648 35.1839 26.5541C35.4208 26.3303 35.5392 26.0603 35.5392 25.7443C35.5392 25.0464 35.4339 24.5525 35.2234 24.2628C35.0128 23.96 34.6246 23.8217 34.0587 23.848C33.6508 23.8612 33.3152 24.0126 33.052 24.3023C32.7889 24.592 32.6573 24.9213 32.6573 25.29C32.6573 25.5533 32.7362 25.7904 32.8941 26.0011C33.0652 26.2118 33.3152 26.3698 33.6442 26.4751C33.4468 26.778 33.0915 27.0348 32.5783 27.2455C32.0782 27.4562 31.5716 27.5615 31.0584 27.5615C30.5452 27.5615 30.1109 27.4364 29.7556 27.1862C29.4135 26.936 29.2424 26.5541 29.2424 26.0406C29.2424 25.5402 29.4792 25.1056 29.953 24.7369C30.4267 24.355 31.0321 24.0653 31.769 23.8678C32.5059 23.6571 33.2692 23.5517 34.0587 23.5517C35.5721 23.5517 36.8486 23.8744 37.8882 24.5196C38.9278 25.1517 39.4476 26.3829 39.4476 28.2134V32.7762C39.4476 33.1581 39.5792 33.349 39.8423 33.349H40.3358V33.5466ZM33.2494 32.3021C33.381 32.4075 33.5455 32.4931 33.7429 32.5589C33.9403 32.6248 34.1377 32.6577 34.3351 32.6577C34.6641 32.6577 34.947 32.5458 35.1839 32.3219C35.4208 32.0849 35.5458 31.7162 35.5589 31.2157V26.4554C35.2826 26.9163 34.822 27.4957 34.1772 28.1936C33.8219 28.6018 33.5455 28.9244 33.3481 29.1615C33.1639 29.3853 33.0126 29.6224 32.8941 29.8726C32.7231 30.2018 32.6375 30.5507 32.6375 30.9195C32.6375 31.196 32.6902 31.4594 32.7954 31.7096C32.9007 31.9466 33.052 32.1441 33.2494 32.3021Z" fill="#444444"/>
<path d="M51.6647 32.7762C51.6647 32.9474 51.6976 33.0857 51.7634 33.191C51.8292 33.2964 51.9279 33.349 52.0595 33.349H52.5728V33.5466H51.6647H50.204H49.3553C48.8815 33.5334 48.5131 33.4412 48.2499 33.27C47.9998 33.0857 47.8551 32.7367 47.8156 32.2231V32.2626C47.763 32.6577 47.48 32.9869 46.9668 33.2503C46.4536 33.5136 45.8614 33.6453 45.1903 33.6453C44.506 33.6453 43.8546 33.4873 43.2361 33.1713C42.6176 32.8552 42.111 32.3417 41.7162 31.6306C41.3214 30.9195 41.124 30.0043 41.124 28.8849C41.124 27.6339 41.3872 26.62 41.9136 25.843C42.4531 25.0529 43.1177 24.4933 43.9072 24.1641C44.6968 23.8217 45.493 23.6505 46.2957 23.6505C46.9668 23.6505 47.4735 23.7427 47.8156 23.927V20.6283C47.8156 20.1148 47.5853 19.858 47.1247 19.858L46.9076 19.8777V19.7197C49.2105 19.2457 50.7765 18.7518 51.6055 18.2383L51.6647 18.337V32.7762ZM47.8156 24.9542C47.8156 24.6381 47.7432 24.3879 47.5985 24.2036C47.4537 24.0192 47.2761 23.927 47.0655 23.927C46.776 23.927 46.4865 24.0916 46.197 24.4209C45.9075 24.7369 45.664 25.2307 45.4666 25.9023C45.2692 26.5739 45.1705 27.4101 45.1705 28.4109C45.1705 29.2273 45.2692 29.9516 45.4666 30.5837C45.664 31.2026 45.9075 31.6832 46.197 32.0256C46.4996 32.3548 46.7892 32.5194 47.0655 32.5194C47.2892 32.5194 47.4669 32.4075 47.5985 32.1836C47.7301 31.9598 47.8024 31.624 47.8156 31.1762V24.9542Z" fill="#444444"/>
<path d="M64.9713 33.5466H62.8197H61.7341C61.2603 33.5334 60.8984 33.4412 60.6484 33.27C60.3984 33.0857 60.2536 32.7367 60.2141 32.2231C60.0036 32.763 59.6022 33.1778 59.0101 33.4676C58.4179 33.7441 57.7533 33.8824 57.0164 33.8824C56.3716 33.8824 55.7597 33.7704 55.1806 33.5466C54.6016 33.3227 54.141 33.0001 53.7989 32.5787C53.4699 32.1441 53.3317 31.624 53.3844 31.0182C53.4502 30.3466 53.6805 29.7936 54.0752 29.359C54.4832 28.9113 54.9504 28.5689 55.4767 28.3319C56.0163 28.0948 56.7006 27.8446 57.5296 27.5813C58.1613 27.3837 58.6416 27.2191 58.9706 27.0875C59.3127 26.9426 59.5956 26.7648 59.8194 26.5541C60.0562 26.3303 60.1747 26.0603 60.1747 25.7443C60.1747 25.0464 60.0694 24.5525 59.8588 24.2628C59.6483 23.96 59.2601 23.8217 58.6942 23.848C58.2863 23.8612 57.9507 24.0126 57.6875 24.3023C57.4243 24.592 57.2927 24.9213 57.2927 25.29C57.2927 25.5533 57.3717 25.7904 57.5296 26.0011C57.7007 26.2118 57.9507 26.3698 58.2797 26.4751C58.0823 26.778 57.727 27.0348 57.2138 27.2455C56.7137 27.4562 56.2071 27.5615 55.6939 27.5615C55.1806 27.5615 54.7464 27.4364 54.3911 27.1862C54.0489 26.936 53.8779 26.5541 53.8779 26.0406C53.8779 25.5402 54.1147 25.1056 54.5885 24.7369C55.0622 24.355 55.6675 24.0653 56.4045 23.8678C57.1414 23.6571 57.9047 23.5517 58.6942 23.5517C60.2076 23.5517 61.484 23.8744 62.5236 24.5196C63.5632 25.1517 64.083 26.3829 64.083 28.2134V32.7762C64.083 33.1581 64.2146 33.349 64.4778 33.349H64.9713V33.5466ZM57.8849 32.3021C58.0165 32.4075 58.181 32.4931 58.3784 32.5589C58.5758 32.6248 58.7732 32.6577 58.9706 32.6577C59.2996 32.6577 59.5825 32.5458 59.8194 32.3219C60.0562 32.0849 60.1812 31.7162 60.1944 31.2157V26.4554C59.9181 26.9163 59.4575 27.4957 58.8127 28.1936C58.4574 28.6018 58.181 28.9244 57.9836 29.1615C57.7994 29.3853 57.648 29.6224 57.5296 29.8726C57.3585 30.2018 57.273 30.5507 57.273 30.9195C57.273 31.196 57.3256 31.4594 57.4309 31.7096C57.5362 31.9466 57.6875 32.1441 57.8849 32.3021Z" fill="#444444"/>
<path d="M77.603 33.191L77.6169 33.6912H71.4049V33.4467L71.9576 33.191H72.4407C72.7039 33.191 72.8459 33.191 72.8459 33.191V26.3369C72.8459 25.4019 72.609 24.9344 72.1352 24.9344C71.8852 24.9344 71.7203 25.0593 71.4044 25.2963C71.1018 25.5333 70.7272 26.0472 70.5166 26.3369V33.191H70.9114H71.9576L72.0953 33.4936L71.4049 33.6912H65.7595V33.1973H66.253C66.5161 33.1973 66.6477 33.1973 66.6477 33.1973V20.6283C66.6477 20.1148 66.424 19.858 65.9766 19.858L65.7595 19.8777V19.7197C68.0492 19.2457 69.6086 18.7518 70.4377 18.2383L70.5166 18.337V25.4938C70.793 25.1251 71.1512 24.7627 71.6512 24.4074C72.1782 24.0329 72.5081 23.8374 73.1316 23.6667C73.5076 23.5638 73.7291 23.5052 74.1186 23.5186C74.9043 23.5455 75.4646 23.848 75.9647 24.3221C76.4647 24.7962 76.7147 25.5204 76.7147 26.4949V32.7762C76.7147 32.9474 76.7147 33.191 76.7147 33.191C76.7147 33.191 76.9972 33.191 77.1288 33.191H77.603Z" fill="#444444"/>
<path d="M48.9879 38.9888C48.5038 38.5022 48.2617 37.9208 48.2617 37.2448C48.2617 36.5687 48.5038 35.9885 48.9879 35.504C49.472 35.0196 50.0519 34.7773 50.7275 34.7773C51.2776 34.7773 51.7782 34.948 52.2294 35.2893L51.8366 35.6824C51.4933 35.4203 51.1236 35.2893 50.7275 35.2893C50.2147 35.2893 49.7768 35.4809 49.4137 35.8641C49.0506 36.2472 48.8691 36.7075 48.8691 37.2448C48.8691 37.7821 49.0506 38.2423 49.4137 38.6255C49.7768 39.0086 50.2147 39.2002 50.7275 39.2002C51.1654 39.2002 51.5538 39.056 51.8927 38.7675V37.585V37.4933H52.5V38.9624C52.3614 39.1011 52.2261 39.2145 52.094 39.3026C51.6803 39.5779 51.2248 39.7155 50.7275 39.7155C50.0519 39.7155 49.472 39.4733 48.9879 38.9888Z" fill="black"/>
<path d="M53.3945 39.7287V35.586H53.8918L53.9929 35.8773C54.3459 35.6076 54.5424 35.5491 54.9349 35.5181C55.4311 35.479 55.8553 35.781 56.1087 35.9132L55.8619 36.3576C55.6248 36.274 55.3211 36.0504 54.9349 36.0613C54.5755 36.0714 54.3109 36.2023 54.0818 36.4073V39.7287H53.3945Z" fill="black"/>
<path d="M71.1602 39.6828V35.5402H71.6574L71.7585 35.8314C72.1116 35.5617 72.308 35.5032 72.7005 35.4722C73.1968 35.4331 73.6209 35.7351 73.8743 35.8673L73.6276 36.3117C73.3904 36.2281 73.0867 36.0045 72.7005 36.0154C72.3412 36.0255 72.0765 36.1564 71.8474 36.3614V39.6828H71.1602Z" fill="black"/>
<path d="M57.245 39.1294C56.8486 38.7169 56.6504 38.21 56.6504 37.6084C56.6504 37.0068 56.8486 36.4998 57.245 36.0874C57.644 35.675 58.1546 35.4688 58.7768 35.4688C59.3963 35.4688 59.9069 35.6763 60.3085 36.0913C60.7128 36.5064 60.9149 37.0121 60.9149 37.6084C60.9149 38.2047 60.7128 38.7104 60.3085 39.1254C59.9069 39.5405 59.3963 39.748 58.7768 39.748C58.152 39.748 57.6414 39.5418 57.245 39.1294ZM57.7018 36.5248C57.434 36.8164 57.3001 37.1776 57.3001 37.6084C57.3001 38.0392 57.434 38.4017 57.7018 38.6959C57.9722 38.9875 58.3305 39.1333 58.7768 39.1333C59.2178 39.1333 59.5735 38.9875 59.8439 38.6959C60.1169 38.4017 60.2534 38.0392 60.2534 37.6084C60.2534 37.1776 60.1169 36.8164 59.8439 36.5248C59.5735 36.2306 59.2178 36.0835 58.7768 36.0835C58.3305 36.0835 57.9722 36.2306 57.7018 36.5248Z" fill="black"/>
<path d="M62.253 39.1209C61.8408 38.7032 61.6348 38.1989 61.6348 37.6078C61.6348 37.0168 61.8408 36.5124 62.253 36.0947C62.6678 35.677 63.1186 35.4858 63.7533 35.4682C64.3882 35.4506 65.1879 36.0114 65.1879 36.0114L64.8918 36.4558C64.8918 36.4558 64.2203 36.0559 63.7533 36.0829C63.3132 36.1083 62.9985 36.2326 62.7176 36.5321C62.4367 36.8289 62.2963 37.1875 62.2963 37.6078C62.2963 38.0281 62.4367 38.388 62.7176 38.6875C63.0012 38.9843 63.3131 39.1365 63.7533 39.1327C64.2563 39.1284 64.8918 38.5298 64.8918 38.5298L65.2866 39.0236C65.2866 39.0236 64.4153 39.7386 63.7533 39.7474C63.1185 39.7559 62.6678 39.5386 62.253 39.1209Z" fill="black"/>
<path d="M65.9287 37.5765C65.9287 36.9352 66.1382 36.4242 66.5573 36.0436C66.9764 35.6604 67.4122 35.4688 68.1 35.4688C69.4692 35.4688 70.2713 36.2561 70.2713 37.8307H66.7445C66.7764 38.1618 66.9252 38.4577 67.1907 38.7184C67.4562 38.9765 67.7311 38.9748 68.1 38.9748C68.6922 38.9748 69.1857 38.481 69.1857 38.481L69.5805 38.9255C69.5805 38.9255 68.7466 39.5772 68.1 39.6168C67.7966 39.6354 67.6642 39.6582 67.3251 39.5435C66.9892 39.4288 66.7205 39.2711 66.5189 39.0703C66.3206 38.8696 66.1718 38.6441 66.0727 38.3938C65.9767 38.1435 65.9287 37.8711 65.9287 37.5765ZM66.7732 37.3028H69.4268C69.382 36.9456 69.2605 36.6523 69.0621 36.4229C68.8638 36.1935 68.4775 36.1107 68.1 36.1107C67.7257 36.1107 67.5058 36.1909 67.2435 36.4151C66.9812 36.6393 66.8244 36.9352 66.7732 37.3028Z" fill="black"/>
<path d="M74.3154 35.4688H75.0611L76.1317 38.1693L77.2292 35.4688H77.9672L75.7111 40.9995H74.9731L75.8105 38.9723L74.3154 35.4688Z" fill="black"/>
<path d="M97.017 33.3636C97.017 34.1307 96.8786 34.7936 96.6016 35.3523C96.3246 35.911 95.9446 36.3419 95.4616 36.6449C94.9787 36.9479 94.4271 37.0994 93.8068 37.0994C93.1866 37.0994 92.6349 36.9479 92.152 36.6449C91.669 36.3419 91.2891 35.911 91.0121 35.3523C90.7351 34.7936 90.5966 34.1307 90.5966 33.3636C90.5966 32.5966 90.7351 31.9337 91.0121 31.375C91.2891 30.8163 91.669 30.3854 92.152 30.0824C92.6349 29.7794 93.1866 29.6278 93.8068 29.6278C94.4271 29.6278 94.9787 29.7794 95.4616 30.0824C95.9446 30.3854 96.3246 30.8163 96.6016 31.375C96.8786 31.9337 97.017 32.5966 97.017 33.3636ZM96.1648 33.3636C96.1648 32.7339 96.0594 32.2024 95.8487 31.7692C95.6404 31.3359 95.3575 31.008 95 30.7855C94.6449 30.563 94.2472 30.4517 93.8068 30.4517C93.3665 30.4517 92.9676 30.563 92.6101 30.7855C92.255 31.008 91.9721 31.3359 91.7614 31.7692C91.553 32.2024 91.4489 32.7339 91.4489 33.3636C91.4489 33.9934 91.553 34.5249 91.7614 34.9581C91.9721 35.3913 92.255 35.7192 92.6101 35.9418C92.9676 36.1643 93.3665 36.2756 93.8068 36.2756C94.2472 36.2756 94.6449 36.1643 95 35.9418C95.3575 35.7192 95.6404 35.3913 95.8487 34.9581C96.0594 34.5249 96.1648 33.9934 96.1648 33.3636ZM99.8189 37L97.8303 29.7273H98.7251L100.245 35.6506H100.316L101.864 29.7273H102.859L104.407 35.6506H104.478L105.998 29.7273H106.893L104.904 37H103.995L102.39 31.2045H102.333L100.728 37H99.8189ZM113.757 29.7273V37H112.905L108.942 31.2898H108.871V37H107.99V29.7273H108.842L112.82 35.4517H112.891V29.7273H113.757ZM115.519 37V29.7273H119.909V30.5085H116.4V32.9659H119.681V33.7472H116.4V36.2188H119.965V37H115.519ZM121.496 37V29.7273H123.953C124.521 29.7273 124.988 29.8243 125.352 30.0185C125.717 30.2102 125.987 30.4742 126.162 30.8104C126.337 31.1465 126.425 31.5289 126.425 31.9574C126.425 32.3859 126.337 32.7659 126.162 33.0973C125.987 33.4287 125.718 33.6892 125.356 33.8786C124.994 34.0656 124.531 34.1591 123.968 34.1591H121.979V33.3636H123.939C124.327 33.3636 124.64 33.3068 124.877 33.1932C125.116 33.0795 125.289 32.9186 125.395 32.7102C125.504 32.4995 125.558 32.2486 125.558 31.9574C125.558 31.6662 125.504 31.4117 125.395 31.1939C125.286 30.9761 125.112 30.808 124.873 30.6896C124.634 30.5689 124.318 30.5085 123.925 30.5085H122.377V37H121.496ZM124.919 33.733L126.709 37H125.686L123.925 33.733H124.919ZM131.87 31.5455C131.827 31.1856 131.654 30.9062 131.351 30.7074C131.048 30.5085 130.676 30.4091 130.236 30.4091C129.914 30.4091 129.632 30.4612 129.391 30.5653C129.152 30.6695 128.965 30.8127 128.83 30.995C128.697 31.1773 128.631 31.3845 128.631 31.6165C128.631 31.8106 128.677 31.9775 128.77 32.1172C128.864 32.2545 128.985 32.3693 129.132 32.4616C129.279 32.5516 129.432 32.6262 129.593 32.6854C129.754 32.7422 129.902 32.7884 130.037 32.8239L130.776 33.0227C130.965 33.0724 131.176 33.1411 131.408 33.2287C131.642 33.3163 131.866 33.4358 132.079 33.5874C132.295 33.7365 132.472 33.9283 132.612 34.1626C132.752 34.397 132.821 34.6847 132.821 35.0256C132.821 35.4186 132.718 35.7737 132.512 36.0909C132.309 36.4081 132.011 36.6603 131.618 36.8473C131.227 37.0343 130.752 37.1278 130.194 37.1278C129.673 37.1278 129.222 37.0438 128.841 36.8757C128.462 36.7076 128.163 36.4732 127.946 36.1726C127.73 35.8719 127.608 35.5227 127.58 35.125H128.489C128.513 35.3996 128.605 35.6269 128.766 35.8068C128.929 35.9844 129.135 36.117 129.384 36.2045C129.635 36.2898 129.905 36.3324 130.194 36.3324C130.53 36.3324 130.832 36.2779 131.099 36.169C131.367 36.0578 131.578 35.9039 131.735 35.7074C131.891 35.5085 131.969 35.2765 131.969 35.0114C131.969 34.7699 131.902 34.5734 131.767 34.4219C131.632 34.2704 131.454 34.1473 131.234 34.0526C131.014 33.9579 130.776 33.875 130.52 33.804L129.625 33.5483C129.057 33.3849 128.607 33.1518 128.276 32.8487C127.944 32.5457 127.779 32.1491 127.779 31.6591C127.779 31.2519 127.889 30.8968 128.109 30.5938C128.332 30.2884 128.63 30.0516 129.004 29.8835C129.38 29.7131 129.801 29.6278 130.265 29.6278C130.733 29.6278 131.15 29.7119 131.515 29.88C131.879 30.0457 132.168 30.273 132.381 30.5618C132.596 30.8506 132.71 31.1785 132.722 31.5455H131.87ZM137.267 33.3636C137.267 32.4687 137.383 31.6461 137.615 30.8956C137.849 30.1428 138.183 29.4503 138.616 28.8182H139.355C139.184 29.0526 139.024 29.3414 138.875 29.6847C138.728 30.0256 138.599 30.4008 138.488 30.8104C138.377 31.2176 138.289 31.639 138.225 32.0746C138.164 32.5102 138.133 32.9399 138.133 33.3636C138.133 33.9271 138.187 34.4988 138.296 35.0788C138.405 35.6589 138.552 36.1974 138.737 36.6946C138.921 37.1918 139.127 37.5966 139.355 37.9091H138.616C138.183 37.277 137.849 36.5857 137.615 35.8352C137.383 35.0824 137.267 34.2585 137.267 33.3636ZM144.682 31.5455C144.64 31.1856 144.467 30.9062 144.164 30.7074C143.861 30.5085 143.489 30.4091 143.049 30.4091C142.727 30.4091 142.445 30.4612 142.203 30.5653C141.964 30.6695 141.777 30.8127 141.642 30.995C141.51 31.1773 141.444 31.3845 141.444 31.6165C141.444 31.8106 141.49 31.9775 141.582 32.1172C141.677 32.2545 141.797 32.3693 141.944 32.4616C142.091 32.5516 142.245 32.6262 142.406 32.6854C142.567 32.7422 142.715 32.7884 142.85 32.8239L143.588 33.0227C143.778 33.0724 143.989 33.1411 144.221 33.2287C144.455 33.3163 144.679 33.4358 144.892 33.5874C145.107 33.7365 145.285 33.9283 145.424 34.1626C145.564 34.397 145.634 34.6847 145.634 35.0256C145.634 35.4186 145.531 35.7737 145.325 36.0909C145.121 36.4081 144.823 36.6603 144.43 36.8473C144.039 37.0343 143.565 37.1278 143.006 37.1278C142.485 37.1278 142.034 37.0438 141.653 36.8757C141.274 36.7076 140.976 36.4732 140.758 36.1726C140.543 35.8719 140.421 35.5227 140.392 35.125H141.301C141.325 35.3996 141.417 35.6269 141.578 35.8068C141.742 35.9844 141.948 36.117 142.196 36.2045C142.447 36.2898 142.717 36.3324 143.006 36.3324C143.342 36.3324 143.644 36.2779 143.912 36.169C144.179 36.0578 144.391 35.9039 144.547 35.7074C144.703 35.5085 144.782 35.2765 144.782 35.0114C144.782 34.7699 144.714 34.5734 144.579 34.4219C144.444 34.2704 144.267 34.1473 144.047 34.0526C143.826 33.9579 143.588 33.875 143.333 33.804L142.438 33.5483C141.87 33.3849 141.42 33.1518 141.088 32.8487C140.757 32.5457 140.591 32.1491 140.591 31.6591C140.591 31.2519 140.701 30.8968 140.922 30.5938C141.144 30.2884 141.442 30.0516 141.816 29.8835C142.193 29.7131 142.613 29.6278 143.077 29.6278C143.546 29.6278 143.962 29.7119 144.327 29.88C144.692 30.0457 144.98 30.273 145.194 30.5618C145.409 30.8506 145.523 31.1785 145.534 31.5455H144.682ZM147.082 37V29.7273H151.471V30.5085H147.963V32.9659H151.244V33.7472H147.963V36.2188H151.528V37H147.082ZM155.843 29.7273H156.723V34.9261C156.723 35.3902 156.638 35.7843 156.468 36.1087C156.297 36.433 156.057 36.6792 155.747 36.8473C155.436 37.0154 155.071 37.0994 154.649 37.0994C154.252 37.0994 153.898 37.0272 153.588 36.8828C153.277 36.736 153.034 36.5277 152.856 36.2578C152.678 35.9879 152.59 35.6671 152.59 35.2955H153.456C153.456 35.5014 153.507 35.6813 153.609 35.8352C153.713 35.9867 153.855 36.1051 154.035 36.1903C154.215 36.2756 154.42 36.3182 154.649 36.3182C154.903 36.3182 155.118 36.2649 155.296 36.1584C155.473 36.0518 155.608 35.8956 155.7 35.6896C155.795 35.4813 155.843 35.2268 155.843 34.9261V29.7273ZM158.786 37H157.863L160.534 29.7273H161.443L164.113 37H163.19L161.017 30.8778H160.96L158.786 37ZM159.127 34.1591H162.849V34.9403H159.127V34.1591ZM167.49 37H165.246V29.7273H167.59C168.295 29.7273 168.899 29.8729 169.401 30.1641C169.903 30.4529 170.287 30.8684 170.555 31.4105C170.822 31.9503 170.956 32.5966 170.956 33.3494C170.956 34.107 170.821 34.7592 170.551 35.3061C170.281 35.8506 169.888 36.2696 169.372 36.5632C168.856 36.8544 168.229 37 167.49 37ZM166.127 36.2188H167.433C168.035 36.2188 168.533 36.1027 168.928 35.8707C169.324 35.6387 169.619 35.3085 169.813 34.88C170.007 34.4515 170.104 33.9413 170.104 33.3494C170.104 32.7623 170.008 32.2569 169.816 31.8331C169.624 31.407 169.338 31.0803 168.957 30.853C168.576 30.6233 168.101 30.5085 167.533 30.5085H166.127V36.2188ZM172.39 37H171.467L174.137 29.7273H175.046L177.717 37H176.793L174.62 30.8778H174.563L172.39 37ZM172.731 34.1591H176.452V34.9403H172.731V34.1591ZM178.849 37V29.7273H179.73V32.9659H183.608V29.7273H184.489V37H183.608V33.7472H179.73V37H178.849ZM194.036 32C193.958 31.7609 193.855 31.5466 193.727 31.3572C193.601 31.1655 193.451 31.0021 193.276 30.8672C193.103 30.7322 192.907 30.6293 192.686 30.5582C192.466 30.4872 192.225 30.4517 191.962 30.4517C191.531 30.4517 191.139 30.563 190.787 30.7855C190.434 31.008 190.153 31.3359 189.945 31.7692C189.737 32.2024 189.632 32.7339 189.632 33.3636C189.632 33.9934 189.738 34.5249 189.949 34.9581C190.159 35.3913 190.444 35.7192 190.804 35.9418C191.164 36.1643 191.569 36.2756 192.019 36.2756C192.435 36.2756 192.802 36.1868 193.12 36.0092C193.439 35.8293 193.688 35.576 193.865 35.2493C194.045 34.9202 194.135 34.5331 194.135 34.0881L194.405 34.1449H192.218V33.3636H194.988V34.1449C194.988 34.7438 194.86 35.2647 194.604 35.7074C194.351 36.1501 194 36.4934 193.553 36.7372C193.108 36.9787 192.596 37.0994 192.019 37.0994C191.375 37.0994 190.809 36.9479 190.321 36.6449C189.836 36.3419 189.457 35.911 189.185 35.3523C188.915 34.7936 188.78 34.1307 188.78 33.3636C188.78 32.7884 188.857 32.2711 189.011 31.8118C189.167 31.3501 189.387 30.9571 189.672 30.6328C189.956 30.3085 190.292 30.0599 190.68 29.8871C191.068 29.7143 191.496 29.6278 191.962 29.6278C192.346 29.6278 192.703 29.6858 193.034 29.8018C193.368 29.9155 193.665 30.0777 193.926 30.2884C194.189 30.4967 194.408 30.7464 194.583 31.0376C194.758 31.3265 194.879 31.6473 194.945 32H194.036ZM196.496 37V29.7273H198.953C199.521 29.7273 199.988 29.8243 200.352 30.0185C200.717 30.2102 200.987 30.4742 201.162 30.8104C201.337 31.1465 201.425 31.5289 201.425 31.9574C201.425 32.3859 201.337 32.7659 201.162 33.0973C200.987 33.4287 200.718 33.6892 200.356 33.8786C199.994 34.0656 199.531 34.1591 198.968 34.1591H196.979V33.3636H198.939C199.327 33.3636 199.64 33.3068 199.877 33.1932C200.116 33.0795 200.289 32.9186 200.395 32.7102C200.504 32.4995 200.558 32.2486 200.558 31.9574C200.558 31.6662 200.504 31.4117 200.395 31.1939C200.286 30.9761 200.112 30.808 199.873 30.6896C199.634 30.5689 199.318 30.5085 198.925 30.5085H197.377V37H196.496ZM199.919 33.733L201.709 37H200.686L198.925 33.733H199.919ZM209.029 33.3636C209.029 34.1307 208.89 34.7936 208.613 35.3523C208.336 35.911 207.956 36.3419 207.473 36.6449C206.99 36.9479 206.439 37.0994 205.819 37.0994C205.198 37.0994 204.647 36.9479 204.164 36.6449C203.681 36.3419 203.301 35.911 203.024 35.3523C202.747 34.7936 202.608 34.1307 202.608 33.3636C202.608 32.5966 202.747 31.9337 203.024 31.375C203.301 30.8163 203.681 30.3854 204.164 30.0824C204.647 29.7794 205.198 29.6278 205.819 29.6278C206.439 29.6278 206.99 29.7794 207.473 30.0824C207.956 30.3854 208.336 30.8163 208.613 31.375C208.89 31.9337 209.029 32.5966 209.029 33.3636ZM208.176 33.3636C208.176 32.7339 208.071 32.2024 207.86 31.7692C207.652 31.3359 207.369 31.008 207.012 30.7855C206.657 30.563 206.259 30.4517 205.819 30.4517C205.378 30.4517 204.979 30.563 204.622 30.7855C204.267 31.008 203.984 31.3359 203.773 31.7692C203.565 32.2024 203.461 32.7339 203.461 33.3636C203.461 33.9934 203.565 34.5249 203.773 34.9581C203.984 35.3913 204.267 35.7192 204.622 35.9418C204.979 36.1643 205.378 36.2756 205.819 36.2756C206.259 36.2756 206.657 36.1643 207.012 35.9418C207.369 35.7192 207.652 35.3913 207.86 34.9581C208.071 34.5249 208.176 33.9934 208.176 33.3636ZM216.362 32H215.481C215.429 31.7467 215.338 31.5241 215.208 31.3324C215.08 31.1406 214.924 30.9796 214.739 30.8494C214.557 30.7169 214.354 30.6174 214.132 30.5511C213.909 30.4848 213.677 30.4517 213.436 30.4517C212.995 30.4517 212.596 30.563 212.239 30.7855C211.884 31.008 211.601 31.3359 211.39 31.7692C211.182 32.2024 211.078 32.7339 211.078 33.3636C211.078 33.9934 211.182 34.5249 211.39 34.9581C211.601 35.3913 211.884 35.7192 212.239 35.9418C212.596 36.1643 212.995 36.2756 213.436 36.2756C213.677 36.2756 213.909 36.2424 214.132 36.1761C214.354 36.1098 214.557 36.0116 214.739 35.8814C214.924 35.7488 215.08 35.5866 215.208 35.3949C215.338 35.2008 215.429 34.9782 215.481 34.7273H216.362C216.296 35.099 216.175 35.4316 216 35.7251C215.824 36.0187 215.607 36.2685 215.346 36.4744C215.086 36.678 214.793 36.8331 214.469 36.9396C214.147 37.0462 213.803 37.0994 213.436 37.0994C212.815 37.0994 212.264 36.9479 211.781 36.6449C211.298 36.3419 210.918 35.911 210.641 35.3523C210.364 34.7936 210.225 34.1307 210.225 33.3636C210.225 32.5966 210.364 31.9337 210.641 31.375C210.918 30.8163 211.298 30.3854 211.781 30.0824C212.264 29.7794 212.815 29.6278 213.436 29.6278C213.803 29.6278 214.147 29.6811 214.469 29.7876C214.793 29.8942 215.086 30.0504 215.346 30.2564C215.607 30.46 215.824 30.7086 216 31.0021C216.175 31.2933 216.296 31.6259 216.362 32ZM217.785 37V29.7273H222.174V30.5085H218.666V32.9659H221.947V33.7472H218.666V36.2188H222.231V37H217.785ZM223.762 37V29.7273H226.219C226.787 29.7273 227.253 29.8243 227.618 30.0185C227.983 30.2102 228.253 30.4742 228.428 30.8104C228.603 31.1465 228.691 31.5289 228.691 31.9574C228.691 32.3859 228.603 32.7659 228.428 33.0973C228.253 33.4287 227.984 33.6892 227.622 33.8786C227.259 34.0656 226.797 34.1591 226.233 34.1591H224.244V33.3636H226.205C226.593 33.3636 226.905 33.3068 227.142 33.1932C227.381 33.0795 227.554 32.9186 227.661 32.7102C227.77 32.4995 227.824 32.2486 227.824 31.9574C227.824 31.6662 227.77 31.4117 227.661 31.1939C227.552 30.9761 227.378 30.808 227.139 30.6896C226.9 30.5689 226.584 30.5085 226.191 30.5085H224.642V37H223.762ZM227.185 33.733L228.975 37H227.952L226.191 33.733H227.185ZM229.289 29.7273H230.297L232.314 33.1222H232.4L234.417 29.7273H235.425L232.797 34.0028V37H231.917V34.0028L229.289 29.7273ZM238.24 33.3636C238.24 34.2585 238.123 35.0824 237.889 35.8352C237.657 36.5857 237.324 37.277 236.891 37.9091H236.152C236.323 37.6747 236.481 37.3859 236.628 37.0426C236.777 36.7017 236.908 36.3277 237.019 35.9205C237.13 35.5109 237.217 35.0883 237.278 34.6527C237.342 34.2147 237.374 33.785 237.374 33.3636C237.374 32.8002 237.319 32.2285 237.211 31.6484C237.102 31.0684 236.955 30.5298 236.77 30.0327C236.586 29.5355 236.38 29.1307 236.152 28.8182H236.891C237.324 29.4503 237.657 30.1428 237.889 30.8956C238.123 31.6461 238.24 32.4687 238.24 33.3636Z" fill="#5C5C5C"/>
<path d="M97.408 10.248V5.8H99.6V17H97.408V12.36H93.248V17H91.04V5.8H93.248V10.248H97.408ZM107.665 9.944V9H109.729V17H107.665V16.056C107.046 16.8347 106.177 17.224 105.057 17.224C103.99 17.224 103.073 16.8187 102.305 16.008C101.547 15.1867 101.169 14.184 101.169 13C101.169 11.8267 101.547 10.8293 102.305 10.008C103.073 9.18667 103.99 8.776 105.057 8.776C106.177 8.776 107.046 9.16533 107.665 9.944ZM103.857 14.632C104.273 15.048 104.801 15.256 105.441 15.256C106.081 15.256 106.609 15.048 107.025 14.632C107.451 14.2053 107.665 13.6613 107.665 13C107.665 12.3387 107.451 11.8 107.025 11.384C106.609 10.9573 106.081 10.744 105.441 10.744C104.801 10.744 104.273 10.9573 103.857 11.384C103.441 11.8 103.233 12.3387 103.233 13C103.233 13.6613 103.441 14.2053 103.857 14.632ZM114.208 9H118.624V17H116.56V10.984H114.208V17H112.144V10.984H110.992V9H112.144V8.92C112.144 6.69067 113.398 5.576 115.904 5.576C116.438 5.576 117.062 5.65067 117.776 5.8V7.688C117.008 7.60267 116.384 7.56 115.904 7.56C115.307 7.56 114.875 7.66133 114.608 7.864C114.342 8.06667 114.208 8.41867 114.208 8.92V9ZM126.571 9.944V5.8H128.635V17H126.571V16.056C125.963 16.8347 125.099 17.224 123.979 17.224C122.901 17.224 121.979 16.8187 121.211 16.008C120.453 15.1867 120.075 14.184 120.075 13C120.075 11.8267 120.453 10.8293 121.211 10.008C121.979 9.18667 122.901 8.776 123.979 8.776C125.099 8.776 125.963 9.16533 126.571 9.944ZM122.763 14.632C123.2 15.048 123.733 15.256 124.363 15.256C125.003 15.256 125.531 15.048 125.947 14.632C126.363 14.2053 126.571 13.6613 126.571 13C126.571 12.3387 126.363 11.8 125.947 11.384C125.531 10.9573 125.003 10.744 124.363 10.744C123.723 10.744 123.189 10.9573 122.763 11.384C122.347 11.8 122.139 12.3387 122.139 13C122.139 13.6613 122.347 14.2053 122.763 14.632ZM136.426 10.376L133.034 15.064H136.586V17H130.266V15.624L133.642 10.936H130.426V9H136.426V10.376ZM150.148 14.776L151.588 16.36L149.828 17.368L148.804 16.264C147.94 16.904 146.938 17.224 145.796 17.224C144.655 17.224 143.711 16.9253 142.964 16.328C142.239 15.72 141.876 14.9093 141.876 13.896C141.876 13.224 142.036 12.6107 142.356 12.056C142.687 11.4907 143.151 11.032 143.748 10.68C143.386 10.1147 143.204 9.49067 143.204 8.808C143.204 7.85867 143.535 7.08533 144.196 6.488C144.858 5.88 145.695 5.576 146.708 5.576C147.519 5.576 148.239 5.784 148.868 6.2C149.498 6.616 149.967 7.208 150.276 7.976L148.388 9.064C148.09 8.168 147.54 7.72 146.74 7.72C146.356 7.72 146.036 7.832 145.78 8.056C145.535 8.28 145.412 8.56267 145.412 8.904C145.412 9.192 145.476 9.45867 145.604 9.704C145.743 9.93867 145.983 10.2373 146.324 10.6L148.724 13.224C148.959 12.744 149.14 12.1253 149.268 11.368L151.124 12.424C150.911 13.2987 150.586 14.0827 150.148 14.776ZM145.94 15.192C146.506 15.192 147.002 15.0587 147.428 14.792L145.012 12.168C144.991 12.1467 144.98 12.1307 144.98 12.12C144.394 12.4827 144.1 13 144.1 13.672C144.1 14.1413 144.26 14.5147 144.58 14.792C144.9 15.0587 145.354 15.192 145.94 15.192ZM156.962 17V5.8H159.17V17H156.962ZM165.595 8.776C166.48 8.776 167.2 9.06933 167.755 9.656C168.331 10.2533 168.619 11.064 168.619 12.088V17H166.555V12.344C166.555 11.8213 166.411 11.416 166.123 11.128C165.846 10.84 165.462 10.696 164.971 10.696C164.427 10.696 163.995 10.8667 163.675 11.208C163.366 11.5387 163.211 12.0293 163.211 12.68V17H161.147V9H163.211V9.896C163.702 9.14933 164.496 8.776 165.595 8.776ZM176.446 9.944V5.8H178.51V17H176.446V16.056C175.838 16.8347 174.974 17.224 173.854 17.224C172.776 17.224 171.854 16.8187 171.086 16.008C170.328 15.1867 169.95 14.184 169.95 13C169.95 11.8267 170.328 10.8293 171.086 10.008C171.854 9.18667 172.776 8.776 173.854 8.776C174.974 8.776 175.838 9.16533 176.446 9.944ZM172.638 14.632C173.075 15.048 173.608 15.256 174.238 15.256C174.878 15.256 175.406 15.048 175.822 14.632C176.238 14.2053 176.446 13.6613 176.446 13C176.446 12.3387 176.238 11.8 175.822 11.384C175.406 10.9573 174.878 10.744 174.238 10.744C173.598 10.744 173.064 10.9573 172.638 11.384C172.222 11.8 172.014 12.3387 172.014 13C172.014 13.6613 172.222 14.2053 172.638 14.632ZM186.477 9.944V9H188.541V17H186.477V16.056C185.858 16.8347 184.989 17.224 183.869 17.224C182.802 17.224 181.885 16.8187 181.117 16.008C180.36 15.1867 179.981 14.184 179.981 13C179.981 11.8267 180.36 10.8293 181.117 10.008C181.885 9.18667 182.802 8.776 183.869 8.776C184.989 8.776 185.858 9.16533 186.477 9.944ZM182.669 14.632C183.085 15.048 183.613 15.256 184.253 15.256C184.893 15.256 185.421 15.048 185.837 14.632C186.264 14.2053 186.477 13.6613 186.477 13C186.477 12.3387 186.264 11.8 185.837 11.384C185.421 10.9573 184.893 10.744 184.253 10.744C183.613 10.744 183.085 10.9573 182.669 11.384C182.253 11.8 182.045 12.3387 182.045 13C182.045 13.6613 182.253 14.2053 182.669 14.632ZM194.861 8.776C195.746 8.776 196.466 9.06933 197.021 9.656C197.597 10.2533 197.885 11.064 197.885 12.088V17H195.821V12.344C195.821 11.8213 195.677 11.416 195.389 11.128C195.111 10.84 194.727 10.696 194.237 10.696C193.693 10.696 193.261 10.8667 192.941 11.208C192.631 11.5387 192.477 12.0293 192.477 12.68V17H190.413V5.8H192.477V9.896C192.967 9.14933 193.762 8.776 194.861 8.776Z" fill="#212121"/>
</svg>
