<svg width="40" height="40" viewBox="0 0 40 40" fill="none" xmlns="http://www.w3.org/2000/svg">
<path d="M25.1203 4.05126L24.6872 4.64539L24.9211 5.51756L25.1147 5.55907L25.0049 6.0716L23.8469 5.82336L23.9568 5.31082L24.0897 5.33931L23.9769 4.84655L23.6618 4.77899L23.5657 5.22699L23.7328 5.2628L23.6229 5.77534L22.5447 5.54419L22.6546 5.03165L22.8558 5.07479L23.1651 3.63209L22.9639 3.58895L23.0737 3.07642L24.152 3.30757L24.0421 3.82011L23.875 3.78429L23.7708 4.27025L24.0936 4.33944L24.3838 3.89336L24.2509 3.86487L24.3608 3.35233L25.4314 3.58186L25.3215 4.0944L25.1203 4.05126Z" fill="black"/>
<path d="M14.2659 35.1209L13.9177 35.406L13.9217 35.9587L14.03 36.0131L13.8858 36.2998L13.2383 35.9741L13.3824 35.6875L13.4567 35.7248L13.466 35.4156L13.2897 35.3269L13.1637 35.5775L13.2572 35.6245L13.113 35.9111L12.51 35.6078L12.6542 35.3212L12.7667 35.3778L13.1725 34.571L13.0599 34.5144L13.2041 34.2278L13.8071 34.531L13.6629 34.8177L13.5695 34.7707L13.4328 35.0424L13.6133 35.1332L13.854 34.9138L13.7797 34.8764L13.9239 34.5898L14.5226 34.8909L14.3784 35.1775L14.2659 35.1209Z" fill="black"/>
<path d="M12.8961 4.58419L12.9601 5.31666L13.7097 5.82022L13.8829 5.72424L14.1369 6.18275L13.101 6.75671L12.847 6.29821L12.9659 6.23234L12.557 5.93508L12.2751 6.09127L12.4972 6.49204L12.6466 6.40924L12.9007 6.86774L11.9361 7.40219L11.682 6.94369L11.8621 6.84395L11.1469 5.55335L10.9669 5.65308L10.7129 5.19458L11.6774 4.66013L11.9315 5.11864L11.7821 5.20144L12.0229 5.63617L12.3116 5.47621L12.2372 4.94927L12.1183 5.01513L11.8642 4.55663L12.822 4.02595L13.0761 4.48445L12.8961 4.58419Z" fill="black"/>
<path d="M22.9649 35.8224L22.83 36.2677L23.1516 36.7399L23.276 36.7243L23.3172 37.0534L22.5737 37.1466L22.5325 36.8175L22.6178 36.8068L22.4477 36.5359L22.2453 36.5613L22.2814 36.8489L22.3886 36.8355L22.4299 37.1646L21.7375 37.2513L21.6963 36.9222L21.8255 36.906L21.7095 35.9797L21.5803 35.9958L21.5391 35.6667L22.2314 35.58L22.2726 35.9091L22.1653 35.9226L22.2044 36.2346L22.4116 36.2086L22.492 35.8816L22.4067 35.8923L22.3655 35.5632L23.0529 35.4771L23.0941 35.8062L22.9649 35.8224Z" fill="black"/>
<path d="M29.8263 32.5124L29.9482 32.9613L30.4714 33.1909L30.5685 33.1117L30.7781 33.3688L30.1974 33.8423L29.9878 33.5853L30.0545 33.5309L29.7665 33.3916L29.6085 33.5205L29.7917 33.7452L29.8755 33.6769L30.0851 33.9339L29.5443 34.3748L29.3347 34.1178L29.4356 34.0355L28.8457 33.312L28.7448 33.3943L28.5352 33.1372L29.0759 32.6963L29.2855 32.9533L29.2017 33.0216L29.4005 33.2654L29.5623 33.1334L29.4569 32.8136L29.3902 32.8679L29.1806 32.6109L29.7176 32.1731L29.9272 32.4301L29.8263 32.5124Z" fill="black"/>
<path d="M25.6673 35.9553L25.3304 35.0918L25.21 35.1388L25.0903 34.832L25.7879 34.5599L26.5212 35.3053L26.2916 34.7168L26.1712 34.7638L26.0515 34.457L26.6377 34.2283L26.7574 34.5351L26.6574 34.5741L27.114 35.7443L26.5868 35.9499L25.8085 35.1697L25.7858 35.1786L26.0332 35.8125L26.1559 35.7646L26.2755 36.0714L25.6666 36.309L25.5469 36.0022L25.6673 35.9553Z" fill="black"/>
<path d="M32.2295 31.5561L31.5585 30.9168L31.4693 31.0103L31.231 30.7832L31.7475 30.2411L32.7276 30.6056L32.2702 30.1698L32.1811 30.2634L31.9427 30.0363L32.3768 29.5807L32.6152 29.8078L32.5411 29.8855L33.4505 30.7521L33.0602 31.1617L32.0246 30.7847L32.0078 30.8024L32.5004 31.2718L32.5913 31.1765L32.8297 31.4036L32.3787 31.8769L32.1403 31.6497L32.2295 31.5561Z" fill="black"/>
<path d="M16.0253 35.3619C16.1 35.3798 16.1635 35.4073 16.2159 35.4444C16.2682 35.4815 16.3058 35.5266 16.3284 35.5797C16.3514 35.6315 16.3551 35.6896 16.3397 35.7539C16.3184 35.8428 16.2741 35.9111 16.2068 35.9589C16.1395 36.0068 16.0611 36.0438 15.9718 36.07L16.1777 36.3951C16.2139 36.3575 16.2474 36.3172 16.2781 36.2742C16.3092 36.23 16.337 36.1849 16.3616 36.1391L16.661 36.2109C16.6244 36.2783 16.5775 36.3488 16.5204 36.4222C16.4633 36.4957 16.3971 36.5615 16.3219 36.6197L16.5395 36.9639L16.1842 36.8787L16.1015 36.7465C16.0686 36.759 16.0348 36.7693 16.0002 36.7773C15.9656 36.7854 15.9301 36.7912 15.8939 36.7947C15.8579 36.797 15.8207 36.7962 15.7821 36.7924C15.7432 36.7899 15.7038 36.7838 15.6639 36.7743C15.5597 36.7492 15.474 36.7117 15.4071 36.6616C15.3405 36.6102 15.2943 36.5501 15.2686 36.4813C15.2429 36.4125 15.2393 36.3395 15.2578 36.2622C15.2736 36.1966 15.2967 36.1429 15.3271 36.1012C15.3592 36.0585 15.398 36.0242 15.4437 35.9984C15.491 35.9717 15.5445 35.9498 15.6044 35.9328C15.5802 35.8862 15.5618 35.8437 15.5493 35.8052C15.5383 35.7659 15.5323 35.7283 15.5313 35.6927C15.5317 35.6574 15.5363 35.621 15.5452 35.5837C15.561 35.5181 15.5913 35.4654 15.6362 35.4258C15.6824 35.3865 15.7389 35.3613 15.8055 35.35C15.8735 35.3391 15.9468 35.3431 16.0253 35.3619ZM15.7312 36.145C15.7024 36.1572 15.6767 36.1708 15.654 36.1857C15.6327 36.201 15.6142 36.2184 15.5986 36.2378C15.5844 36.2575 15.574 36.2809 15.5675 36.3079C15.5542 36.3633 15.5643 36.412 15.5978 36.4541C15.6316 36.4949 15.6794 36.5227 15.7412 36.5375C15.7824 36.5474 15.8222 36.5515 15.8607 36.5499C15.8993 36.5482 15.9355 36.5419 15.9694 36.531L15.7312 36.145ZM15.9701 35.5835C15.9379 35.5758 15.905 35.5768 15.8714 35.5864C15.8393 35.5951 15.8179 35.6219 15.8071 35.667C15.7994 35.6992 15.7997 35.7319 15.808 35.7652C15.8177 35.7989 15.8323 35.8344 15.8519 35.8717C15.9131 35.8551 15.9614 35.8354 15.9968 35.8126C16.0335 35.7901 16.0565 35.7595 16.0658 35.7209C16.0751 35.6823 16.0688 35.6515 16.0471 35.6286C16.0254 35.6057 15.9997 35.5906 15.9701 35.5835Z" fill="black"/>
<path d="M8.41918 32.6308C8.33655 32.5493 8.27435 32.4709 8.23259 32.3954C8.19083 32.3223 8.16837 32.25 8.16523 32.1784C8.16208 32.1069 8.17768 32.0368 8.21202 31.968C8.2475 31.8981 8.30059 31.8273 8.37129 31.7556L8.86395 31.2562L8.77395 31.1674L9.00488 30.9333L9.5024 31.4242L9.27147 31.6583L9.18147 31.5695L8.69395 32.0636C8.65974 32.0983 8.63463 32.1306 8.61861 32.1604C8.60487 32.1902 8.59795 32.2176 8.59786 32.2426C8.60004 32.2675 8.60733 32.2907 8.61975 32.3121C8.6333 32.3346 8.65027 32.3559 8.67064 32.376C8.69215 32.3972 8.71367 32.415 8.73521 32.4294C8.75901 32.4437 8.78341 32.4518 8.8084 32.4537C8.83566 32.4555 8.86408 32.4493 8.89367 32.4352C8.92327 32.421 8.95631 32.3955 8.9928 32.3585L9.48032 31.8643L9.39033 31.7755L9.62126 31.5414L10.1188 32.0322L9.88784 32.2663L9.79785 32.1775L9.3052 32.6769C9.16265 32.8214 9.02094 32.8915 8.88007 32.8871C8.74035 32.8815 8.58672 32.7961 8.41918 32.6308Z" fill="black"/>
<path d="M11.3661 34.9616C11.2683 34.899 11.1912 34.8351 11.1347 34.7701C11.0786 34.7072 11.0416 34.6411 11.0237 34.5718C11.0058 34.5025 11.0064 34.4306 11.0257 34.3562C11.0459 34.2804 11.0832 34.2001 11.1374 34.1153L11.5156 33.5245L11.4092 33.4564L11.5864 33.1794L12.175 33.5562L11.9978 33.8332L11.8913 33.765L11.517 34.3497C11.4908 34.3907 11.4729 34.4275 11.4634 34.46C11.4562 34.4919 11.4551 34.5202 11.4602 34.5446C11.4675 34.5686 11.4795 34.5898 11.4961 34.6081C11.514 34.6273 11.535 34.6446 11.5591 34.66C11.5846 34.6763 11.6093 34.6893 11.6334 34.6989C11.6596 34.708 11.6852 34.7108 11.71 34.7074C11.737 34.7035 11.7636 34.6916 11.7896 34.6716C11.8156 34.6516 11.8426 34.6198 11.8706 34.576L12.2449 33.9913L12.1384 33.9232L12.3157 33.6462L12.9043 34.023L12.727 34.3L12.6205 34.2318L12.2423 34.8226C12.1329 34.9936 12.0088 35.0915 11.8701 35.1165C11.7323 35.1401 11.5643 35.0884 11.3661 34.9616Z" fill="black"/>
<path d="M7.56893 30.9079L7.45482 31.0108L7.55773 31.1249L7.3132 31.3454L6.81826 30.7966L7.06279 30.5761L7.14936 30.6721L7.83765 30.0514L7.75108 29.9554L7.99561 29.7349L8.51668 30.3127C8.59836 30.4032 8.65748 30.4846 8.69405 30.5567C8.73172 30.63 8.75009 30.6977 8.74919 30.7599C8.74829 30.822 8.72852 30.8814 8.68991 30.9381C8.65238 30.9961 8.6004 31.055 8.53399 31.1149C8.4555 31.1857 8.38201 31.2377 8.31351 31.271C8.24501 31.3043 8.17753 31.3181 8.11105 31.3124C8.04565 31.3078 7.97897 31.2837 7.91101 31.2399C7.84304 31.1961 7.77094 31.1319 7.69471 31.0474L7.56893 30.9079ZM7.81346 30.6874L7.92453 30.8106C7.96156 30.8516 8.00092 30.8698 8.04261 30.865C8.08539 30.8615 8.13758 30.8319 8.19916 30.7764C8.23297 30.7459 8.25796 30.719 8.27413 30.6956C8.29031 30.6723 8.29953 30.6497 8.3018 30.628C8.30517 30.6074 8.30213 30.5883 8.29268 30.5705C8.28444 30.5517 8.27161 30.5326 8.25419 30.5133L8.14311 30.3901L7.81346 30.6874Z" fill="black"/>
<path d="M18.6447 36.6872L18.6423 36.8408L18.7959 36.8432L18.7907 37.1725L18.0518 37.1609L18.057 36.8316L18.1862 36.8337L18.2007 35.9069L18.0715 35.9049L18.0767 35.5757L18.8546 35.5879C18.9766 35.5898 19.0764 35.6019 19.1541 35.6243C19.2334 35.6467 19.2955 35.6794 19.3404 35.7224C19.3853 35.7653 19.4153 35.8203 19.4305 35.8872C19.4473 35.9542 19.4551 36.0323 19.4537 36.1218C19.452 36.2274 19.44 36.3167 19.4177 36.3895C19.3955 36.4624 19.3596 36.5211 19.3101 36.5659C19.2622 36.6107 19.1991 36.643 19.1207 36.6629C19.0424 36.6829 18.9463 36.6919 18.8325 36.6901L18.6447 36.6872ZM18.6498 36.358L18.8157 36.3606C18.8709 36.3614 18.911 36.345 18.936 36.3112C18.9625 36.2775 18.9764 36.2192 18.9777 36.1362C18.9785 36.0907 18.9758 36.0541 18.9697 36.0263C18.9636 35.9986 18.9534 35.9765 18.939 35.96C18.9263 35.9435 18.9102 35.9327 18.8908 35.9275C18.8714 35.9207 18.8486 35.9171 18.8226 35.9167L18.6568 35.9141L18.6498 36.358Z" fill="black"/>
<path d="M10.123 33.3609L10.0286 33.4821L10.1498 33.5765L9.94754 33.8363L9.36441 33.3823L9.5667 33.1225L9.6687 33.2019L10.2381 32.4706L10.1361 32.3912L10.3384 32.1313L10.9523 32.6093C11.0485 32.6843 11.1209 32.754 11.1695 32.8187C11.2194 32.8843 11.2493 32.9478 11.2593 33.0091C11.2692 33.0704 11.2602 33.1324 11.232 33.195C11.2052 33.2586 11.1643 33.3257 11.1094 33.3962C11.0444 33.4796 10.9811 33.5437 10.9195 33.5884C10.8579 33.6332 10.7938 33.6585 10.7274 33.6645C10.6622 33.6715 10.5923 33.6593 10.5177 33.628C10.4432 33.5968 10.361 33.5462 10.2712 33.4762L10.123 33.3609ZM10.3253 33.101L10.4561 33.2029C10.4998 33.2369 10.5417 33.2479 10.5819 33.2359C10.6234 33.225 10.6696 33.1868 10.7206 33.1214C10.7486 33.0854 10.7685 33.0546 10.7803 33.0288C10.7922 33.0029 10.7973 32.9791 10.7958 32.9573C10.7955 32.9365 10.7891 32.9182 10.7767 32.9023C10.7653 32.8852 10.7494 32.8687 10.7288 32.8527L10.598 32.7508L10.3253 33.101Z" fill="black"/>
<path d="M8.24174 8.09501C8.20514 8.13171 8.17704 8.17189 8.15744 8.21556C8.13613 8.25752 8.13184 8.30814 8.14457 8.36742C8.15897 8.42503 8.19383 8.49472 8.24914 8.5765C8.30444 8.65828 8.39042 8.75733 8.50707 8.87366C8.62372 8.99 8.72218 9.07654 8.80244 9.13329C8.88271 9.19005 8.95166 9.22555 9.00931 9.23979C9.06696 9.25403 9.1176 9.25129 9.16121 9.23157C9.20311 9.21014 9.24486 9.17858 9.28644 9.13688C9.32803 9.09518 9.35948 9.05335 9.3808 9.01139C9.4004 8.96772 9.403 8.91708 9.3886 8.85947C9.3742 8.80186 9.33852 8.733 9.28154 8.65289C9.22457 8.57278 9.13776 8.47456 9.02111 8.35823C8.90446 8.24189 8.80517 8.15618 8.72325 8.1011C8.64132 8.04601 8.5707 8.01218 8.51139 7.99961C8.45374 7.98537 8.40396 7.98896 8.36206 8.01039C8.31845 8.03011 8.27834 8.05831 8.24174 8.09501ZM7.88922 7.74345C7.99735 7.63502 8.10914 7.54522 8.2246 7.47405C8.34173 7.40121 8.46698 7.3631 8.60037 7.35972C8.73372 7.35296 8.87782 7.38687 9.03267 7.46146C9.18582 7.53434 9.35331 7.66145 9.53515 7.84279C9.71184 8.019 9.83683 8.18358 9.91012 8.33652C9.98508 8.4878 10.021 8.63014 10.018 8.76354C10.015 8.89694 9.9781 9.02316 9.90729 9.14219C9.8382 9.26293 9.74876 9.37835 9.63897 9.48844C9.53084 9.59687 9.41821 9.6875 9.30109 9.76034C9.18563 9.83151 9.06123 9.87048 8.92789 9.87724C8.7945 9.88062 8.65123 9.84587 8.49808 9.773C8.34494 9.70012 8.17659 9.57215 7.99304 9.3891C7.81635 9.21289 7.69052 9.04915 7.61557 8.89787C7.54227 8.74492 7.50714 8.60175 7.51015 8.46835C7.51484 8.33328 7.55175 8.20706 7.62089 8.0897C7.68998 7.96896 7.77942 7.85354 7.88922 7.74345Z" fill="black"/>
<path d="M16.3779 3.49377C16.3272 3.50469 16.2818 3.52316 16.2416 3.54918C16.201 3.57282 16.1699 3.61299 16.1483 3.66968C16.1291 3.72587 16.1205 3.80332 16.1225 3.90202C16.1245 4.00072 16.1429 4.13059 16.1777 4.29164C16.2124 4.45268 16.248 4.57882 16.2846 4.67008C16.3211 4.76133 16.3597 4.82859 16.4004 4.87187C16.4411 4.91515 16.4851 4.94036 16.5324 4.9475C16.5792 4.95227 16.6314 4.94845 16.689 4.93603C16.7466 4.92361 16.7957 4.90558 16.8364 4.88193C16.8766 4.85592 16.9062 4.81482 16.9255 4.75863C16.9447 4.70244 16.9521 4.62524 16.9478 4.52703C16.9435 4.42882 16.924 4.2992 16.8892 4.13816C16.8545 3.97712 16.8177 3.85122 16.7789 3.76046C16.74 3.66971 16.6991 3.60294 16.6561 3.56016C16.6155 3.51688 16.5717 3.49286 16.5249 3.48809C16.4776 3.48095 16.4286 3.48284 16.3779 3.49377ZM16.2729 3.00709C16.4226 2.97481 16.5653 2.96015 16.7009 2.96312C16.8388 2.9656 16.9646 3.00165 17.0785 3.07128C17.1941 3.13805 17.2966 3.2448 17.3861 3.39156C17.4751 3.53594 17.5467 3.73365 17.6008 3.98468C17.6534 4.22861 17.669 4.43469 17.6474 4.60291C17.6281 4.77064 17.581 4.90969 17.506 5.02004C17.431 5.1304 17.3314 5.21631 17.2073 5.27778C17.0837 5.34161 16.9459 5.38992 16.7939 5.4227C16.6443 5.45499 16.5005 5.46989 16.3626 5.46742C16.227 5.46444 16.1014 5.42957 15.9857 5.36281C15.8719 5.29318 15.7705 5.18617 15.6815 5.04179C15.5925 4.89741 15.5207 4.69851 15.4661 4.44511C15.4135 4.20118 15.3968 3.99535 15.416 3.82762C15.4376 3.6594 15.4859 3.52011 15.5609 3.40975C15.6382 3.2989 15.7377 3.21298 15.8596 3.15201C15.9832 3.08818 16.121 3.03987 16.2729 3.00709Z" fill="black"/>
<path d="M32.7869 11.1773L34.1576 10.6999L34.0535 10.5478L34.4643 10.2668L35.2926 11.478L34.0022 12.9544L34.0979 13.0944L33.6871 13.3754L33.0795 12.4868L33.4903 12.2058L33.6006 12.3671L33.7894 12.1665L33.4065 11.6066L33.149 11.7068L33.2593 11.8681L32.8485 12.149L32.2803 11.3183L32.6911 11.0373L32.7869 11.1773ZM34.4947 11.1929L33.8972 11.4229L34.1448 11.785L34.5821 11.3207L34.4947 11.1929Z" fill="black"/>
<path d="M19.8121 36.9651L20.0498 36.04L19.9285 36.0416L19.9242 35.7141L20.8897 35.7015L21.2287 36.9465L21.3403 36.945L21.3446 37.2725L20.6363 37.2818L20.632 36.9543L20.7605 36.9526L20.7194 36.7761L20.2731 36.7819L20.2341 36.9595L20.3627 36.9579L20.367 37.2853L19.7048 37.294L19.7005 36.9665L19.8121 36.9651ZM20.4428 36.0349L20.3511 36.4461L20.6398 36.4423L20.5447 36.0335L20.4428 36.0349Z" fill="black"/>
<path d="M23.7208 36.5758L23.7267 35.6207L23.6094 35.6517L23.5256 35.3351L24.4591 35.0881L25.0905 36.2135L25.1984 36.1849L25.2821 36.5015L24.5973 36.6827L24.5136 36.3661L24.6379 36.3332L24.555 36.1719L24.1235 36.2861L24.1289 36.4678L24.2532 36.4349L24.337 36.7516L23.6967 36.9209L23.613 36.6043L23.7208 36.5758ZM24.1066 35.5202L24.1176 35.9413L24.3967 35.8675L24.2051 35.4941L24.1066 35.5202Z" fill="black"/>
<path d="M30.8106 32.8871L30.3706 32.0394L30.2813 32.1215L30.0596 31.8804L30.7703 31.2269L31.8535 31.9281L31.9356 31.8526L32.1573 32.0937L31.6359 32.5732L31.4142 32.3321L31.5089 32.2451L31.3604 32.141L31.0318 32.4431L31.1213 32.6014L31.216 32.5143L31.4377 32.7554L30.9502 33.2037L30.7285 32.9626L30.8106 32.8871ZM30.6599 31.7734L30.8659 32.1408L31.0784 31.9454L30.7349 31.7044L30.6599 31.7734Z" fill="black"/>
<path d="M32.0968 8.71832L31.7054 8.34882L31.971 8.06756L31.8021 7.90812L30.8128 8.95595L30.9817 9.1154L30.6302 9.48765L29.7778 8.68285L30.1292 8.31059L30.2981 8.47003L31.2874 7.4222L31.1185 7.26276L30.853 7.54402L30.4616 7.17452L31.0786 6.521L32.7138 8.0648L32.0968 8.71832Z" fill="black"/>
<path d="M6.5052 10.5805L6.22663 11.0411L5.89566 10.8409L5.77545 11.0396L7.00847 11.7855L7.12868 11.5867L7.56673 11.8517L6.95997 12.8548L6.52192 12.5898L6.64213 12.3911L5.4091 11.6453L5.28889 11.844L5.61986 12.0442L5.34129 12.5047L4.57227 12.0396L5.73618 10.1154L6.5052 10.5805Z" fill="black"/>
<path d="M27.8986 5.11592L27.7194 5.0303L27.9375 4.57397L28.938 5.05215L28.7199 5.50848L28.5408 5.42286L27.9269 6.70732L28.1061 6.79294L27.888 7.24926L26.8874 6.77108L27.1055 6.31476L27.2847 6.40038L27.8986 5.11592Z" fill="black"/>
<path d="M27.9417 33.9656L27.8247 34.0394L27.6367 33.7412L28.2905 33.3291L28.4785 33.6273L28.3614 33.7011L28.8905 34.5404L29.0075 34.4666L29.1955 34.7648L28.5417 35.1769L28.3537 34.8787L28.4708 34.8049L27.9417 33.9656Z" fill="black"/>
<path d="M3.74861 18.6521L4.03442 19.5317H4.95932L4.21106 20.0754L4.49687 20.955L3.74861 20.4114L3.00034 20.955L3.28616 20.0754L2.53789 19.5317H3.4628L3.74861 18.6521Z" fill="#5C5C5C"/>
<path d="M36.2481 18.6521L36.5339 19.5317H37.4588L36.7106 20.0754L36.9964 20.955L36.2481 20.4114L35.4999 20.955L35.7857 20.0754L35.0374 19.5317H35.9623L36.2481 18.6521Z" fill="#5C5C5C"/>
<circle cx="19.9983" cy="20" r="18.6546" stroke="black" stroke-width="1.03125"/>
</svg>
